{
    "asset": {
        "generator": "COLLADA2GLTF",
        "version": "2.0"
    },
    "scenes": [
        {
            "nodes": [
                0
            ]
        }
    ],
    "scene": 0,
    "nodes": [
        {
            "children": [
                1
            ],
            "name": "Y_UP"
        },
        {
            "mesh": 0,
            "matrix": [
                0.8688822388648987,
                0.0,
                0.4950188100337982,
                0.0,
                0.0,
                1.0,
                0.0,
                0.0,
                -0.4950188100337982,
                0.0,
                0.8688822388648987,
                0.0,
                0.01684439927339554,
                0.02582339942455292,
                -0.20824797451496125,
                1.0
            ],
            "name": "man"
        }
    ],
    "meshes": [
        {
            "primitives": [
                {
                    "attributes": {
                        "NORMAL": 1,
                        "POSITION": 2,
                        "TEXCOORD_0": 3
                    },
                    "indices": 0,
                    "mode": 4,
                    "material": 0
                }
            ],
            "name": "ID8"
        }
    ],
    "accessors": [
        {
            "bufferView": 0,
            "byteOffset": 0,
            "componentType": 5123,
            "count": 59994,
            "max": [
                10608
            ],
            "min": [
                0
            ],
            "type": "SCALAR"
        },
        {
            "bufferView": 1,
            "byteOffset": 0,
            "componentType": 5126,
            "count": 10609,
            "max": [
                0.9999690055847168,
                0.9996870160102844,
                0.9999369978904724
            ],
            "min": [
                -0.9999690055847168,
                -0.999875009059906,
                -0.9999690055847168
            ],
            "type": "VEC3"
        },
        {
            "bufferView": 1,
            "byteOffset": 127308,
            "componentType": 5126,
            "count": 10609,
            "max": [
                0.1885639876127243,
                1.7016700506210328,
                0.16494199633598329
            ],
            "min": [
                -0.40023699402809145,
                -0.02883799932897091,
                -0.5311309695243836
            ],
            "type": "VEC3"
        },
        {
            "bufferView": 2,
            "byteOffset": 0,
            "componentType": 5126,
            "count": 10609,
            "max": [
                0.995799958705902,
                0.9924999475479126
            ],
            "min": [
                0.004000000189989805,
                0.006600022315979004
            ],
            "type": "VEC2"
        }
    ],
    "materials": [
        {
            "pbrMetallicRoughness": {
                "baseColorTexture": {
                    "index": 0
                },
                "metallicFactor": 0.0
            },
            "name": "ID2"
        }
    ],
    "textures": [
        {
            "sampler": 0,
            "source": 0
        }
    ],
    "images": [
        {
            "uri": "data:image/jpg;base64,"
        }
    ],
    "samplers": [
        {
            "magFilter": 9729,
            "minFilter": 9986,
            "wrapS": 10497,
            "wrapT": 10497
        }
    ],
    "bufferViews": [
        {
            "buffer": 0,
            "byteOffset": 339488,
            "byteLength": 119988,
            "target": 34963
        },
        {
            "buffer": 0,
            "byteOffset": 0,
            "byteLength": 254616,
            "byteStride": 12,
            "target": 34962
        },
        {
            "buffer": 0,
            "byteOffset": 254616,
            "byteLength": 84872,
            "byteStride": 8,
            "target": 34962
        }
    ],
    "buffers": [
        {
            "byteLength": 459476,
            "uri": "data:application/octet-stream;base64,"
        }
    ]
}
