<?xml version="1.0" encoding="utf-8"?>
<!-- Generator: Adobe Illustrator 17.1.0, SVG Export Plug-In . SVG Version: 6.00 Build 0)  -->
<!DOCTYPE svg PUBLIC "-//W3C//DTD SVG 1.1//EN" "http://www.w3.org/Graphics/SVG/1.1/DTD/svg11.dtd">
<svg version="1.1" id="图层_1" xmlns="http://www.w3.org/2000/svg" xmlns:xlink="http://www.w3.org/1999/xlink" x="0px" y="0px"
	 viewBox="0 0 255.4 223.2" enable-background="new 0 0 255.4 223.2" xml:space="preserve">
<path fill="#FFFFFF" d="M255.4,24l-21-13.4l-14,22c2.6,1.7,5.2,3.4,7.9,5c-13.4,13.1-30.4,18.8-48.7,12.7
	C168,46.4,158,39.1,148.7,31.5c-9.7-7.9-20.2-12-32.5-14.1c-8.3-1.4-16.4-0.6-24.1,2.8c-6.3,2.8-11.5,7.9-15.6,13.3
	c-8.4,10.9-10.1,24.6-11,37.9c-8.6-0.9-17.2,1.6-25.9,1.9C30.8,73.6,20.9,71,17,63.3C14.2,58,15,51.4,17.5,46
	c5.2-11.1,15.7-19.6,25.3-26.7c2.8-2.1,5.1-3.8,6.9-5.1l3.1,5.3l13-7.7L58.9,0l-13,7.7l3,5.1c-0.8,0.3-1.7,0.6-2.7,0.9
	C34.6,17.6,23,23.7,14.1,32c-6.7,6.3-12,14.4-13.7,23.5c-2.8,15.7,8.1,27.4,21.7,33.1c6.9,2.9,14.5,4.5,22,4.8
	c5.1,0.2,19-4,22.6-0.7c1.5,1.3,2.3,7.2,3.2,9.2c5.2,10.5,17.3,14.8,28.4,13c1.2-0.2,2.3-0.5,3.5-0.8c0.2,1.6,0.5,3.2,1,4.9
	c0.3,1,0.7,2,1.2,2.9c-0.3,0.2-0.7,0.3-1,0.4c-0.8,0.3-1.5,0.7-2.3,1c-14.3,5.5-31.1,9.9-46.5,5.9c-0.6-0.1-1.1-0.3-1.5-0.4l6.5-3.5
	l-12.3-23l-22,11.7l12.3,23l14.8-7.9c0.4,0.3,1,0.7,1.7,1.2c1,0.6,2.2,1.3,3.7,2.1c9.8,5.2,21.4,6.5,32.3,5.9
	c5.5-0.3,11.1-1.2,16.4-2.6c4.7-1.2,9.4-3.7,14.3-3.6c17.8,0.3,32.7-16.9,42.6-29.7c1.3-1.7,3.2-6.3,4.9-7.3L175,91l-7-11.8l-13,7.7
	l5.6,9.5c-2.2,2.9-4.4,5.8-7,8.4c-5,5.1-10.7,9.4-16.8,13c-1.3,0.7-2.9,1.6-4.6,2.3c0,0,0,0,0,0c2.4-4,3.8-9,3.8-13.8
	c0-5.5-3.8-10.1-3.8-15.3l-0.6-1c0,0-0.1-0.2-0.1-0.2c-1.1-1.9,18-10.5,20.1-11.2c9.5-3.4,20-4.2,29.9-2.2c4,0.8,8.5,2.5,10,6.4
	c1.5,3.6-0.2,7.8-2.1,11.2c-7.7,14.1-19.1,24-30.9,34.6c-11.9,10.7-23.6,22.2-29.9,37.2c-6.6,15.5-8.1,34.3,3.2,48.2
	c2.7,3.3,6.1,6.1,9.8,8.2c2.9,1.7,6.6,1.2,9-1.2c2.2-2.2,3.1-6.4,1.2-9c-10.3-13.8-5.3-33,3.4-46.3c13.8-20.9,37.6-32.8,50.2-54.8
	c4.3-7.5,7.4-15.8,7.4-24.5c0-5-1.4-9.7-3.8-13.8c2.4-1.1,4.8-2.5,7-4.1c4.7-3.4,8.8-7.4,12.3-12c3.1-4.1,4.9-9.5,6.1-14.5
	c0-0.2,0.1-0.4,0.1-0.6l7.1,4.5L255.4,24z M102.3,106.4c-0.4,1.9-11.3,1.6-13.1,1.4c-6.6-1.1-12.1-5.6-14.6-11.8
	c-0.5-1.4-0.9-2.8-1.3-4.2c0-0.1,27.8,0.3,31.1,1.2l0.2,0l0.1,0c-0.7-0.3-0.1,0-0.2-0.1l0.4,0.2l1.6,0.6l0.2,0.1l0.1,0l0.1,0
	l0.2,0.1l0.1,0.1C104.9,98,103.1,102.1,102.3,106.4z M117.8,110c-0.1,0.6-0.2,1.2-0.5,1.8c0,0,0,0,0,0c-0.3,0.5-0.6,1.1-0.9,1.6
	c0-2.4,0.5-4.5,1.5-6.7C117.9,107.8,117.9,108.9,117.8,110z M120.4,78.4C120.4,78.4,120.4,78.4,120.4,78.4
	c-7.7-4.8-16.5-7.4-25.3-8.3C93.2,70,73.5,69,73.3,70.6c1.8-16.2,8.3-36.7,26.9-39.7c19.2-3.2,32.8,17,45.8,27.8
	c1.1,0.9,2.1,1.8,3.2,2.6C138.6,65,128.7,71,120.4,78.4z"/>
</svg>
