<?xml version="1.0" encoding="utf-8"?>
<!-- Generator: Adobe Illustrator 17.1.0, SVG Export Plug-In . SVG Version: 6.00 Build 0)  -->
<!DOCTYPE svg PUBLIC "-//W3C//DTD SVG 1.1//EN" "http://www.w3.org/Graphics/SVG/1.1/DTD/svg11.dtd">
<svg version="1.1" xmlns="http://www.w3.org/2000/svg" xmlns:xlink="http://www.w3.org/1999/xlink" x="0px" y="0px"
	 viewBox="0 0 500 500" enable-background="new 0 0 500 500" xml:space="preserve">
<g id="图层_2">
	<rect stroke="#000000" stroke-miterlimit="10" width="500" height="500"/>
</g>
<g id="图层_1">
	<g>
		<path fill="#FFFFFF" stroke="#FFFFFF" stroke-miterlimit="10" d="M266.7,172.2c2.8,2.1,5.8,4.3,9.6,4.1c3.6-0.2,6.8-1.6,9.4-4.3
			c-0.3,1.6-4,3.8-7.1,4.6C274,177.8,269,175.3,266.7,172.2"/>
		<path fill="#FFFFFF" stroke="#FFFFFF" stroke-miterlimit="10" d="M392.7,367.9c-7.3-1.6-14.5-2.5-21.9-2
			c-4.3,0.3-8.6,0.8-12.7,1.6c-1,0.2-1.2-0.2-1.3-1c-0.2-1,0.3-1,1-1c6.6-1.2,13.2-2,19.8-1.8c5.3,0.2,10.6,1,15.7,2.1
			c0.3,0.2,1,0,0.8,0.7C393.7,367.2,393.3,367.7,392.7,367.9 M385.6,386.2c-4.3-2.6-8.4-5.1-13-7.1c-6.9-3-14.2-4.9-21.8-5.8
			c-9.6-1.2-19-1.2-28.5-1c-1.8,0-3.8,0.2-5.6,0.3c0,0.5,0.3,0.7,0.5,0.8c3.1,3,6.1,6.3,8.2,10.1c1,1.6,1.8,3.3,2.1,5.3
			c-5.6-4.3-11.2-8.6-16.7-12.9c-0.2,0.2-0.2,0.2-0.3,0.3c5.8,4.5,11.4,8.7,17.1,13.2c0,0.2,0,0.2,0,0.3c0.3,2.3-0.5,4.1-2.3,5.4
			c-0.2,0.2-0.5,0.3-0.7,0.3c-7.9-5.8-15.8-11.5-23.6-17.3c-0.2,0.2-0.2,0.3-0.3,0.3c7.7,5.8,15.7,11.5,23.4,17.3
			c-2.1,1.3-4.6,1.8-7.1,2c-0.2,0-0.3,0-0.5,0c-6.6-4.3-13.2-8.4-19.8-12.7c0,0.2-0.2,0.3-0.2,0.3c6.4,4.1,12.9,8.2,19.1,12.4
			c-5.1,0-9.9-1.6-14.7-3.6c-2.3-1-4.6-2.3-6.9-3.3c-0.5,0-1-0.2-1.5-0.3c-2-1.2-4-2.3-5.8-3.6c-0.2-0.2-0.3-0.3-0.7-0.5
			c-2.1-1.3-4.1-2.8-6.1-4.3c-0.2-0.2-0.2-0.2-0.3-0.3c-2.1-1.5-4.1-3-5.9-4.6c-0.2-0.2-0.3-0.3-0.7-0.5c-1.3-1-2.5-2.1-3.6-3.1
			c-0.3-0.3-0.8-0.7-1-1.3c0-0.2-0.2-0.2-0.2-0.3c-1.5-1.6-1.5-1.6-0.2-3.5c3.1-4.3,7.4-6.4,12.2-7.7c9.2-2.6,17.8-0.7,25.7,4.6
			c2.1,1.5,4.5,3,6.4,4.6c0.7,0.7,1.5,0.8,2.3,0.8c6.8-0.5,13.4-0.7,20.1-0.5c9.4,0.3,18.6,0.8,27.7,3.5c7.9,2.3,15.5,5.6,22.4,10.4
			C386.3,384.8,386.6,385.5,385.6,386.2 M306.5,406.4c-0.5,0.5-0.8,0.5-1.2-0.2c-0.8-1.3-1.8-2.6-2.6-4c-1.3-1.8-2.6-3.6-4-5.4
			c-0.5-0.7-0.2-0.8,0.3-1.3c0.5-0.3,0.8-0.7,1.3,0c1.5,2.1,3,4.5,4.5,6.6l0,0c0.7,1,1.5,2,2.1,3C307.3,405.8,307,406,306.5,406.4
			 M278.6,381.7L278.6,381.7L278.6,381.7L278.6,381.7 M271.7,400.7c-4.9,0.8-9.7,0.5-14.2-2.1c-3-1.8-4-4.1-3.1-7.6
			c0.7-2.5,1.8-4.8,3.1-6.9c2.6-4.1,5.9-7.6,9.7-10.7c1.5,1.2,3,2.3,4.3,3.6c-5.3,4.1-10.7,8.4-16,12.5c0,0.2,0.2,0.2,0.2,0.3
			c5.4-4.1,10.7-8.2,16.2-12.5c0.2,0.2,0.2,0.2,0.3,0.3c0,0.2-0.2,0.3-0.3,0.5c0.2-0.2,0.5-0.3,0.7-0.2c1.6,1.3,3.3,2.6,5.1,4
			c-0.2,0.2-0.3,0.2-0.3,0.3c-5.6,4.1-11.2,8.2-16.8,12.4c-0.3,0.2-0.7,0.3-0.7,1c1.3-0.8,2.3-1.6,3.5-2.5
			c4.9-3.6,9.9-7.3,14.7-10.9c0.3,0.2,0.5,0.5,0.8,0.7c1.8,1.3,3.5,2.6,5.3,3.8c-3.6,2.3-7.3,4.8-10.9,7.1c-1.8,1.2-3.6,2.3-5.3,3.5
			c0,0.2,0.2,0.2,0.2,0.3c5.4-3.5,11-7.1,16.5-10.6c0.2,0.2,0.3,0.2,0.5,0.3c0,0.2-0.2,0.3-0.2,0.5c0.2-0.2,0.3-0.2,0.7-0.2
			c2.5,1.5,4.8,3,7.3,4.5C286.2,396.1,279.3,399.4,271.7,400.7 M249.9,388.6c-2.8,4.8-5.1,9.9-7.1,15.2c-0.7,0.5-1.3,0.7-2,0
			c3.1-9.1,7.6-17.3,13.4-24.9c4.9-6.6,10.7-12.5,17-17.8c0.2-0.2,0.2-0.2,0.5-0.5c-2.3-0.7-4.6-0.8-6.9-1.2
			c-6.1-0.7-12.2-1-18.3-0.8c-8.6,0.3-17.1,1.3-25.4,3.3c-1.5,0.3-1.5,0.3-1.5-1.3c0-24.1-0.2-48.1-0.2-72.2c0-1.5,0-3,0-4.5
			c0-0.8,0.3-1.2,1.2-1c0.8,0,0.8,0.5,0.8,1.2c0,0.3,0,0.7,0,1c0,24.2,0,48.5,0,72.7c0,1.8,0,2,1.8,1.5c7.9-1.6,15.7-2.5,23.7-2.8
			c9.4-0.3,18.8,0.5,28,2.5c0.3,0,0.8,0,1,0.5c0,0.3-0.5,0.5-0.7,0.7C265.2,368.4,256.5,377.4,249.9,388.6 M320,286.4
			c0.5-0.7,1.3-1,2.1-0.7c-16,13.5-29.5,28.8-40.4,46.8c-3,4.8-5.6,9.9-8.2,14.8c-0.2,0.5-0.2,1.3-1.2,1c-1-0.3-1-1-0.5-1.8
			c4-8.1,8.7-16,13.8-23.4c7.1-10.4,15-20.1,23.9-28.8c1.8-1.8,3.8-3.5,5.6-5.3c2-1.6,4-3.1,5.9-4.6
			C320.6,285.1,320.3,285.8,320,286.4 M243,250.5c3.8-6.8,12-10.4,18.3-14.5c4.8-3.1,9.6-6.1,14.3-8.9c0.2,0,0.2-0.2,0.3-0.2
			c0.8-0.5,1.2-1,1.2-2c0-4.5,0-8.7,0-13.2s0-8.9,0-13.4c0-0.5,0-1.2-0.7-1.3c-31-8.6-36.4-58.5-26.4-84.6c1-2.6,2.6-4.6,5.3-6.1
			c6.3-3.5,12.5-7.1,18.8-10.7c0.5-0.3,1-0.5,1.5-0.3c10.6,3.8,20.9,8.2,30.2,14.8c2.6,2,5.1,4.1,7.3,6.8
			c8.7,11.2,6.9,31.8,4.6,44.8c-3,16.2-11.2,31-11.5,47.6c-0.2,8.4,3,15.7,8.4,21.8c7.1,8.1,17.1,11.9,19,23.7
			c2.3,15-9.4,26.2-21.4,31.7c-11.2,5.1-25.2,8.4-37.4,7.3c-17.3-1.6-33.1-16-33.6-34.6c0-0.7,0-1.3,0-2
			C241.2,254.6,241.8,252.5,243,250.5 M351.1,365.7c0.3-7.4,0.8-14.7,1.5-21.9c0.8-9.4,2-18.8,3.6-28.2c2.1-12.2,4.6-24.4,8.1-36.4
			c0.2-0.7,0.2-1.6,1.3-1.2c0.7,0.3,0.8,0.5,0.7,1.3c-2.5,8.2-4.3,16.8-6.1,25.4c-2.1,10.6-4,21.1-5.1,31.8
			c-1,9.6-1.8,19.1-2.1,28.7c0,0.7-0.2,1.3-0.2,2c0,0.7-0.3,0.8-1,0.8c-0.7,0-1-0.2-0.8-1C351.1,366.6,351.1,366.1,351.1,365.7
			 M365.5,262.5c-0.5,0.2-1,0.2-1.5,0.3C364.5,262.5,365,262.5,365.5,262.5 M423.7,398.2c-0.2-2.1-0.3-4.3-0.5-6.3
			c-4-49.3-18.6-95.6-54.9-129.4c-0.3-0.3-0.8-0.7-1.3-0.3c0,0-0.2,0-0.2,0.2c0.7-0.3,0.7-1,0.2-2.1c-1.3-2.8-2.5-5.6-3.3-8.4
			c-5.1-15.8-7.4-32.6-8.6-49.3s0.3-33.3-1-50c-1.6-18.6-4.5-40.4-16.3-55.2c-5.1-6.3-11.4-10.9-18.8-13.8
			c-7.6-3.1-15.5-4.3-23.6-4.6c-5.1-0.2-10.1-0.2-15.2,0.7c-31.3,5.6-45.5,37.4-45,67.3c0,2,0,4,0,5.9c0,1.3-0.2,2.5-0.7,3.8
			c-1.8,5.1-3.1,10.2-4.1,15.5c-2.5,11.9-3,24.6-0.5,36.6c2.6,12.9,10.6,23.2,12.4,36.3c0.2,1.3-0.2,2.5-1.2,3.6
			c-32.5,34-55.9,73.2-63.1,121c-1.2,7.1-2,14.2-2.5,21.3c-0.3,5.9-0.8,11.7-0.7,17.6c0,0.7-0.2,1.3,0.5,1.8c58.4-1,241-2.5,246.1-4
			c3.3-1,2.8-0.5,2.6-4.6C423.8,400.3,423.7,399.4,423.7,398.2"/>
		<path fill="#FFFFFF" stroke="#FFFFFF" stroke-miterlimit="10" d="M265.1,140.9c0,2.8-0.7,5.1-1.3,5.1c-0.7,0-1.3-2.3-1.3-5.1
			c0-2.8,0.7-5.1,1.3-5.1C264.4,135.8,265.1,138.1,265.1,140.9"/>
		<path fill="#FFFFFF" stroke="#FFFFFF" stroke-miterlimit="10" d="M295.9,140c0,2.8-0.7,5.1-1.3,5.1c-0.7,0-1.3-2.3-1.3-5.1
			c0-2.8,0.7-5.1,1.3-5.1C295.4,134.9,295.9,137.2,295.9,140"/>
	</g>
	<g>
		<g>
			<g>
				
					<ellipse id="hd_28_" transform="matrix(-0.9397 0.342 -0.342 -0.9397 557.0347 496.5139)" fill="#FFFFFF" stroke="#FFFFFF" stroke-miterlimit="10" cx="234.7" cy="297.4" rx="20.3" ry="15.5"/>
			</g>
			<path fill="#FFFFFF" stroke="#FFFFFF" d="M216.9,292v106.2"/>
			<g>
				
					<ellipse id="hd_29_" transform="matrix(-0.9397 0.342 -0.342 -0.9397 759.4899 23.6821)" fill="#FFFFFF" stroke="#FFFFFF" stroke-miterlimit="10" cx="377.7" cy="78.8" rx="20.3" ry="15.5"/>
			</g>
			<path fill="#FFFFFF" stroke="#FFFFFF" d="M285.2,76.4v307"/>
			<g>
				
					<ellipse id="hd_30_" transform="matrix(-0.9397 0.342 -0.342 -0.9397 953.4362 317.4693)" fill="#FFFFFF" stroke="#FFFFFF" stroke-miterlimit="10" cx="448.7" cy="242.8" rx="20.3" ry="15.5"/>
			</g>
			<path fill="#FFFFFF" stroke="#FFFFFF" d="M379.7,251.5v139.6"/>
		</g>
		<g>
			<path fill="#FFFFFF" stroke="#FFFFFF" d="M93.1,403.3c233.3,1,170.5,1,402.4,0"/>
			<path fill="#FFFFFF" stroke="#FFFFFF" d="M11.5,322.5c261.1,1,225.4,1,484.2,0"/>
			<path fill="#FFFFFF" stroke="#FFFFFF" d="M27.2,241.9c254.4,1.2,215.5,1.2,468.3,0"/>
			<path fill="#FFFFFF" stroke="#FFFFFF" d="M34.3,161.5c250.2,0.8,211.5,0.8,461.4-0.3"/>
			<path fill="#FFFFFF" stroke="#FFFFFF" d="M108.8,80.4c276.3,1.2,113.1,1.2,386.7,0"/>
			<path fill="#FFFFFF" stroke="#FFFFFF" stroke-width="10" d="M483.2,405.5V78.2"/>
			<path fill="#FFFFFF" stroke="#FFFFFF" d="M448.7,405.5V78.2"/>
			<path fill="#FFFFFF" d="M137.7,245.9c-1.2-12-2.3-24.9-3.5-39.4c11.7-9.4,22.7-18.8,30.3-29.7c13.5-19.5,11.2-71.9-7.3-95.6
				c-31.8,23.1-31.8,47-31.8,76.7c0.3,9.9,0.8,19.1,1.3,28c-35.8,28-63.8,46.3-59.3,99.7c4.8,36.1,39.9,54.2,73,51.3
				c0.5,8.1,1,16.3,1.5,25.2c0.7,42.7-22.3,36.1-29.8,30.5c33.8-1.3,17.8-48.3-10.2-34.8c-21.6,13.2-6.3,44.3,20.1,44
				c19.1-0.3,27.5-12.9,25.6-44.7c-0.5-7.3-1-14.3-1.5-20.9c6.3-1,12.5-2.8,18.5-5.6C206.8,308.7,185.3,245.2,137.7,245.9z
				 M131.6,167.1c-1.6-26.9,12.5-50.6,29.5-61.5c5.6,25.6,8.6,40.7-20.4,69.6c-2.6,2.1-5.3,4.5-7.9,6.4
				C132.1,176.9,131.9,172.2,131.6,167.1z M80.1,281.3c-0.5-31.3,24.2-51.1,48.5-70.4c1,12.9,2.1,24.6,3.3,35.8
				c-38.1,11-37.6,48.1-14.3,61.5c-14.5-18-4.9-35.4,16.5-40.4c2.3,21.3,4.6,41.7,6.3,64.8C111.5,336.2,82.6,321,80.1,281.3z
				 M163.6,325.3c-5.6,2.8-11.7,4.9-17.8,6.1c-1.8-22.9-4-42.9-6.1-64.8C174.1,263.8,191.4,304.4,163.6,325.3z"/>
		</g>
		<g>
			<path fill="#FFFFFF" stroke="#FFFFFF" d="M450.2,431.3c-1.3-134.7-1.3-269,0-403.6"/>
			<path fill="#FFFFFF" stroke="#FFFFFF" d="M379.7,433.3c0.5-133.5,0.5-271,0-405.5"/>
			<path fill="#FFFFFF" stroke="#FFFFFF" d="M309.1,466.1c-0.7-145.6-0.7-292,0-438.3"/>
			<path fill="#FFFFFF" stroke="#FFFFFF" d="M238.5,450.5c1.2-141.8,1.2-282.2,0-422.7"/>
			<path fill="#FFFFFF" stroke="#FFFFFF" d="M168,483.9c0-151.3,0-303.7,0-456.1"/>
			<path fill="#FFFFFF" stroke="#FFFFFF" stroke-width="10" d="M452.2,41.3h-286"/>
			<path fill="#FFFFFF" stroke="#FFFFFF" d="M452.2,78.7h-286"/>
		</g>
	</g>
</g>
</svg>
