<?xml version="1.0" encoding="utf-8"?>
<!-- Generator: Adobe Illustrator 17.1.0, SVG Export Plug-In . SVG Version: 6.00 Build 0)  -->
<!DOCTYPE svg PUBLIC "-//W3C//DTD SVG 1.1//EN" "http://www.w3.org/Graphics/SVG/1.1/DTD/svg11.dtd">
<svg version="1.1" id="图层_1" xmlns="http://www.w3.org/2000/svg" xmlns:xlink="http://www.w3.org/1999/xlink" x="0px" y="0px"
	 viewBox="0 0 303.3 293.2" enable-background="new 0 0 303.3 293.2" xml:space="preserve">
    
<g>
	<path fill="#FFFFFF" stroke="#FFFFFF" stroke-miterlimit="10" d="M161.8,99.4c1.7,1.3,3.5,2.6,5.8,2.5c2.2-0.1,4.1-1,5.7-2.6
		c-0.2,1-2.4,2.3-4.3,2.8C166.2,102.8,163.2,101.3,161.8,99.4"/>
	<path fill="#FFFFFF" stroke="#FFFFFF" stroke-miterlimit="10" d="M238.2,218.1c-4.4-1-8.8-1.5-13.3-1.2c-2.6,0.2-5.2,0.5-7.7,1
		c-0.6,0.1-0.7-0.1-0.8-0.6c-0.1-0.6,0.2-0.6,0.6-0.6c4-0.7,8-1.2,12-1.1c3.2,0.1,6.4,0.6,9.5,1.3c0.2,0.1,0.6,0,0.5,0.4
		C238.8,217.7,238.6,218,238.2,218.1 M233.9,229.2c-2.6-1.6-5.1-3.1-7.9-4.3c-4.2-1.8-8.6-3-13.2-3.5c-5.8-0.7-11.5-0.7-17.3-0.6
		c-1.1,0-2.3,0.1-3.4,0.2c0,0.3,0.2,0.4,0.3,0.5c1.9,1.8,3.7,3.8,5,6.1c0.6,1,1.1,2,1.3,3.2c-3.4-2.6-6.8-5.2-10.1-7.8
		c-0.1,0.1-0.1,0.1-0.2,0.2c3.5,2.7,6.9,5.3,10.4,8c0,0.1,0,0.1,0,0.2c0.2,1.4-0.3,2.5-1.4,3.3c-0.1,0.1-0.3,0.2-0.4,0.2
		c-4.8-3.5-9.6-7-14.3-10.5c-0.1,0.1-0.1,0.2-0.2,0.2c4.7,3.5,9.5,7,14.2,10.5c-1.3,0.8-2.8,1.1-4.3,1.2c-0.1,0-0.2,0-0.3,0
		c-4-2.6-8-5.1-12-7.7c0,0.1-0.1,0.2-0.1,0.2c3.9,2.5,7.8,5,11.6,7.5c-3.1,0-6-1-8.9-2.2c-1.4-0.6-2.8-1.4-4.2-2
		c-0.3,0-0.6-0.1-0.9-0.2c-1.2-0.7-2.4-1.4-3.5-2.2c-0.1-0.1-0.2-0.2-0.4-0.3c-1.3-0.8-2.5-1.7-3.7-2.6c-0.1-0.1-0.1-0.1-0.2-0.2
		c-1.3-0.9-2.5-1.8-3.6-2.8c-0.1-0.1-0.2-0.2-0.4-0.3c-0.8-0.6-1.5-1.3-2.2-1.9c-0.2-0.2-0.5-0.4-0.6-0.8c0-0.1-0.1-0.1-0.1-0.2
		c-0.9-1-0.9-1-0.1-2.1c1.9-2.6,4.5-3.9,7.4-4.7c5.6-1.6,10.8-0.4,15.6,2.8c1.3,0.9,2.7,1.8,3.9,2.8c0.4,0.4,0.9,0.5,1.4,0.5
		c4.1-0.3,8.1-0.4,12.2-0.3c5.7,0.2,11.3,0.5,16.8,2.1c4.8,1.4,9.4,3.4,13.6,6.3C234.3,228.4,234.5,228.8,233.9,229.2 M185.9,241.5
		c-0.3,0.3-0.5,0.3-0.7-0.1c-0.5-0.8-1.1-1.6-1.6-2.4c-0.8-1.1-1.6-2.2-2.4-3.3c-0.3-0.4-0.1-0.5,0.2-0.8c0.3-0.2,0.5-0.4,0.8,0
		c0.9,1.3,1.8,2.7,2.7,4v0c0.4,0.6,0.9,1.2,1.3,1.8C186.4,241.1,186.2,241.2,185.9,241.5 M169,226.5C169,226.5,169,226.5,169,226.5
		L169,226.5C169,226.5,169,226.5,169,226.5 M164.8,238c-3,0.5-5.9,0.3-8.6-1.3c-1.8-1.1-2.4-2.5-1.9-4.6c0.4-1.5,1.1-2.9,1.9-4.2
		c1.6-2.5,3.6-4.6,5.9-6.5c0.9,0.7,1.8,1.4,2.6,2.2c-3.2,2.5-6.5,5.1-9.7,7.6c0,0.1,0.1,0.1,0.1,0.2c3.3-2.5,6.5-5,9.8-7.6
		c0.1,0.1,0.1,0.1,0.2,0.2c0,0.1-0.1,0.2-0.2,0.3c0.1-0.1,0.3-0.2,0.4-0.1c1,0.8,2,1.6,3.1,2.4c-0.1,0.1-0.2,0.1-0.2,0.2
		c-3.4,2.5-6.8,5-10.2,7.5c-0.2,0.1-0.4,0.2-0.4,0.6c0.8-0.5,1.4-1,2.1-1.5c3-2.2,6-4.4,8.9-6.6c0.2,0.1,0.3,0.3,0.5,0.4
		c1.1,0.8,2.1,1.6,3.2,2.3c-2.2,1.4-4.4,2.9-6.6,4.3c-1.1,0.7-2.2,1.4-3.2,2.1c0,0.1,0.1,0.1,0.1,0.2c3.3-2.1,6.7-4.3,10-6.4
		c0.1,0.1,0.2,0.1,0.3,0.2c0,0.1-0.1,0.2-0.1,0.3c0.1-0.1,0.2-0.1,0.4-0.1c1.5,0.9,2.9,1.8,4.4,2.7
		C173.6,235.2,169.4,237.2,164.8,238 M151.6,230.7c-1.7,2.9-3.1,6-4.3,9.2c-0.4,0.3-0.8,0.4-1.2,0c1.9-5.5,4.6-10.5,8.1-15.1
		c3-4,6.5-7.6,10.3-10.8c0.1-0.1,0.1-0.1,0.3-0.3c-1.4-0.4-2.8-0.5-4.2-0.7c-3.7-0.4-7.4-0.6-11.1-0.5c-5.2,0.2-10.4,0.8-15.4,2
		c-0.9,0.2-0.9,0.2-0.9-0.8c0-14.6-0.1-29.2-0.1-43.8c0-0.9,0-1.8,0-2.7c0-0.5,0.2-0.7,0.7-0.6c0.5,0,0.5,0.3,0.5,0.7
		c0,0.2,0,0.4,0,0.6c0,14.7,0,29.4,0,44.1c0,1.1,0,1.2,1.1,0.9c4.8-1,9.5-1.5,14.4-1.7c5.7-0.2,11.4,0.3,17,1.5c0.2,0,0.5,0,0.6,0.3
		c0,0.2-0.3,0.3-0.4,0.4C160.9,218.4,155.6,223.9,151.6,230.7 M194.1,168.7c0.3-0.4,0.8-0.6,1.3-0.4c-9.7,8.2-17.9,17.5-24.5,28.4
		c-1.8,2.9-3.4,6-5,9c-0.1,0.3-0.1,0.8-0.7,0.6c-0.6-0.2-0.6-0.6-0.3-1.1c2.4-4.9,5.3-9.7,8.4-14.2c4.3-6.3,9.1-12.2,14.5-17.5
		c1.1-1.1,2.3-2.1,3.4-3.2c1.2-1,2.4-1.9,3.6-2.8C194.5,167.9,194.3,168.3,194.1,168.7 M147.4,146.9c2.3-4.1,7.3-6.3,11.1-8.8
		c2.9-1.9,5.8-3.7,8.7-5.4c0.1,0,0.1-0.1,0.2-0.1c0.5-0.3,0.7-0.6,0.7-1.2c0-2.7,0-5.3,0-8c0-2.7,0-5.4,0-8.1c0-0.3,0-0.7-0.4-0.8
		c-18.8-5.2-22.1-35.5-16-51.3c0.6-1.6,1.6-2.8,3.2-3.7c3.8-2.1,7.6-4.3,11.4-6.5c0.3-0.2,0.6-0.3,0.9-0.2c6.4,2.3,12.7,5,18.3,9
		c1.6,1.2,3.1,2.5,4.4,4.1c5.3,6.8,4.2,19.3,2.8,27.2c-1.8,9.8-6.8,18.8-7,28.9c-0.1,5.1,1.8,9.5,5.1,13.2
		c4.3,4.9,10.4,7.2,11.5,14.4c1.4,9.1-5.7,15.9-13,19.2c-6.8,3.1-15.3,5.1-22.7,4.4c-10.5-1-20.1-9.7-20.4-21c0-0.4,0-0.8,0-1.2
		C146.3,149.4,146.7,148.1,147.4,146.9 M213,216.8c0.2-4.5,0.5-8.9,0.9-13.3c0.5-5.7,1.2-11.4,2.2-17.1c1.3-7.4,2.8-14.8,4.9-22.1
		c0.1-0.4,0.1-1,0.8-0.7c0.4,0.2,0.5,0.3,0.4,0.8c-1.5,5-2.6,10.2-3.7,15.4c-1.3,6.4-2.4,12.8-3.1,19.3c-0.6,5.8-1.1,11.6-1.3,17.4
		c0,0.4-0.1,0.8-0.1,1.2c0,0.4-0.2,0.5-0.6,0.5c-0.4,0-0.6-0.1-0.5-0.6C213,217.3,213,217,213,216.8 M221.7,154.2
		c-0.3,0.1-0.6,0.1-0.9,0.2C221.1,154.2,221.4,154.2,221.7,154.2 M257,236.5c-0.1-1.3-0.2-2.6-0.3-3.8c-2.4-29.9-11.3-58-33.3-78.5
		c-0.2-0.2-0.5-0.4-0.8-0.2c0,0-0.1,0-0.1,0.1c0.4-0.2,0.4-0.6,0.1-1.3c-0.8-1.7-1.5-3.4-2-5.1c-3.1-9.6-4.5-19.8-5.2-29.9
		c-0.7-10.1,0.2-20.2-0.6-30.3c-1-11.3-2.7-24.5-9.9-33.5c-3.1-3.8-6.9-6.6-11.4-8.4c-4.6-1.9-9.4-2.6-14.3-2.8
		c-3.1-0.1-6.1-0.1-9.2,0.4c-19,3.4-27.6,22.7-27.3,40.8c0,1.2,0,2.4,0,3.6c0,0.8-0.1,1.5-0.4,2.3c-1.1,3.1-1.9,6.2-2.5,9.4
		c-1.5,7.2-1.8,14.9-0.3,22.2c1.6,7.8,6.4,14.1,7.5,22c0.1,0.8-0.1,1.5-0.7,2.2c-19.7,20.6-33.9,44.4-38.3,73.4
		c-0.7,4.3-1.2,8.6-1.5,12.9c-0.2,3.6-0.5,7.1-0.4,10.7c0,0.4-0.1,0.8,0.3,1.1c35.4-0.6,146.2-1.5,149.3-2.4c2-0.6,1.7-0.3,1.6-2.8
		C257.1,237.8,257,237.2,257,236.5"/>
	<path fill="#FFFFFF" stroke="#FFFFFF" stroke-miterlimit="10" d="M160.8,80.4c0,1.7-0.4,3.1-0.8,3.1c-0.4,0-0.8-1.4-0.8-3.1
		c0-1.7,0.4-3.1,0.8-3.1C160.4,77.3,160.8,78.7,160.8,80.4"/>
	<path fill="#FFFFFF" stroke="#FFFFFF" stroke-miterlimit="10" d="M179.5,79.9c0,1.7-0.4,3.1-0.8,3.1c-0.4,0-0.8-1.4-0.8-3.1
		c0-1.7,0.4-3.1,0.8-3.1C179.2,76.8,179.5,78.2,179.5,79.9"/>
</g>
<g>
	<g>
		<path fill="#FFFFFF" stroke="#FFFFFF" stroke-miterlimit="10" d="M130.7,236.9h101.1v-9.4H130.7"/>
		<path fill="#FFFFFF" stroke="#FFFFFF" stroke-miterlimit="10" d="M131.6,222.2H175v-9.4h-43.5"/>
		<g>
			
				<ellipse id="hd_28_" transform="matrix(-0.342 -0.9397 0.9397 -0.342 26.3681 369.0969)" fill="#FFFFFF" stroke="#FFFFFF" stroke-miterlimit="10" cx="142.4" cy="175.3" rx="9.4" ry="12.3"/>
		</g>
		<path fill="#FFFFFF" stroke="#FFFFFF" d="M131.6,172.1v64.4"/>
		<g>
			
				<ellipse id="hd_29_" transform="matrix(-0.342 -0.9397 0.9397 -0.342 205.3664 225.8743)" fill="#FFFFFF" stroke="#FFFFFF" stroke-miterlimit="10" cx="181.8" cy="41" rx="9.4" ry="12.3"/>
		</g>
		<path fill="#FFFFFF" stroke="#FFFFFF" d="M173,41.3v186.2"/>
		<g>
			
				<ellipse id="hd_30_" transform="matrix(-0.342 -0.9397 0.9397 -0.342 183.3399 426.6906)" fill="#FFFFFF" stroke="#FFFFFF" stroke-miterlimit="10" cx="241.1" cy="149.2" rx="9.4" ry="12.3"/>
		</g>
		<path fill="#FFFFFF" stroke="#FFFFFF" d="M230.3,147.5v84.7"/>
	</g>
	<g>
		<path fill="#FFFFFF" stroke="#FFFFFF" d="M56.5,239.6c141.5,0.6,103.4,0.6,244.1,0"/>
		<path fill="#FFFFFF" stroke="#FFFFFF" d="M7,190.6c158.4,0.6,136.7,0.6,293.7,0"/>
		<path fill="#FFFFFF" stroke="#FFFFFF" d="M16.5,141.7c154.3,0.7,130.7,0.7,284.1,0"/>
		<path fill="#FFFFFF" stroke="#FFFFFF" d="M20.8,92.9c151.8,0.5,128.3,0.5,279.9-0.2"/>
		<path fill="#FFFFFF" stroke="#FFFFFF" d="M66,43.7c167.6,0.7,68.6,0.7,234.6,0"/>
		<path fill="#FFFFFF" stroke="#FFFFFF" stroke-width="10" d="M293.1,240.9V42.4"/>
		<path fill="#FFFFFF" stroke="#FFFFFF" d="M272.2,240.9V42.4"/>
		<path fill="#FFFFFF" d="M63.5,143.5c-0.7-7.3-1.4-15.1-2.1-23.9c7.1-5.7,13.8-11.4,18.4-18c8.2-11.8,6.8-43.6-4.4-58
			C56.1,57.6,56.1,72.1,56.1,90.1c0.2,6,0.5,11.6,0.8,17c-21.7,17-38.7,28.1-36,60.5c2.9,21.9,24.2,32.9,44.3,31.1
			c0.3,4.9,0.6,9.9,0.9,15.3c0.4,25.9-13.5,21.9-18.1,18.5c20.5-0.8,10.8-29.3-6.2-21.1c-13.1,8-3.8,26.9,12.2,26.7
			c11.6-0.2,16.7-7.8,15.5-27.1c-0.3-4.4-0.6-8.7-0.9-12.7c3.8-0.6,7.6-1.7,11.2-3.4C105.4,181.6,92.4,143.1,63.5,143.5z M59.8,95.7
			c-1-16.3,7.6-30.7,17.9-37.3c3.4,15.5,5.2,24.7-12.4,42.2c-1.6,1.3-3.2,2.7-4.8,3.9C60.1,101.7,60,98.8,59.8,95.7z M28.6,165
			c-0.3-19,14.7-31,29.4-42.7c0.6,7.8,1.3,14.9,2,21.7c-23.1,6.7-22.8,29.2-8.7,37.3c-8.8-10.9-3-21.5,10-24.5
			c1.4,12.9,2.8,25.3,3.8,39.3C47.6,198.3,30.1,189.1,28.6,165z M79.2,191.7c-3.4,1.7-7.1,3-10.8,3.7c-1.1-13.9-2.4-26-3.7-39.3
			C85.6,154.4,96.1,179,79.2,191.7z"/>
	</g>
	<g>
		<path fill="#FFFFFF" stroke="#FFFFFF" d="M273.1,256.6c-0.8-81.7-0.8-163.2,0-244.8"/>
		<path fill="#FFFFFF" stroke="#FFFFFF" d="M230.3,257.8c0.3-81,0.3-164.4,0-246"/>
		<path fill="#FFFFFF" stroke="#FFFFFF" d="M187.5,277.7c-0.4-88.3-0.4-177.1,0-265.9"/>
		<path fill="#FFFFFF" stroke="#FFFFFF" d="M144.7,268.2c0.7-86,0.7-171.2,0-256.4"/>
		<path fill="#FFFFFF" stroke="#FFFFFF" d="M101.9,288.5c0-91.8,0-184.2,0-276.7"/>
		<path fill="#FFFFFF" stroke="#FFFFFF" stroke-width="10" d="M274.3,20H100.8"/>
		<path fill="#FFFFFF" stroke="#FFFFFF" d="M274.3,42.7H100.8"/>
	</g>
</g>
</svg>
