<?xml version="1.0" encoding="utf-8"?>
<!-- Generator: Adobe Illustrator 21.0.0, SVG Export Plug-In . SVG Version: 6.00 Build 0)  -->
<svg version="1.1" xmlns="http://www.w3.org/2000/svg" xmlns:xlink="http://www.w3.org/1999/xlink" x="0px" y="0px"
	 viewBox="0 0 300 300" style="enable-background:new 0 0 300 300;" xml:space="preserve">
<style type="text/css">
	.st0{display:none;}
	.st1{display:inline;fill:#515151;stroke:#000000;stroke-miterlimit:10;}
	.st2{fill:none;stroke:#F9F9F9;stroke-width:2;stroke-miterlimit:10;}
</style>
<g id="图层_2" class="st0">
	<rect class="st1" width="300" height="300"/>
</g>
<g id="图层_3">
	<path class="st2" d="M118.8,45.4c-0.9,0.8-2.1,1.4-3.1,2c3.1-1.9,14.7-11.1,5.7-12.9c-1.7-0.3-3.5,0.1-5.2,0.6
		c1.1-1.4,2.3-2.7,3.4-4.1c0.3-0.4,0.7-0.8,0.7-1.3c0-0.6-0.5-1.2-1-1.5c-3.6-2.4-7.5,0.1-11.1-0.4c-2.1-0.3-8.5-13.2-9.4-12.9
		c-12.6,4.2-24.6,10-35.7,17.3c0.8,3.6,1.9,7.1,3.2,10.5c0.6,1.4,2,3.3,2.1,4.8c0.1,1.3-0.7,2.4-0.7,3.7c0.1,3.9,1.6,5.9-2.5,8.3
		c-4.3,2.5-8.8,5.2-11.5,9.4S50.5,79.2,54,82.7c0.7,0.7,1.6,1.3,2,2.3c0.3,0.7,0.4,1.5,0.5,2.3c0.6,3.1,3.2,5.6,6.3,6.6
		s6.4,0.6,9.3-0.6c6.1-2.3,10.8-7.8,12.3-14.1c3.6-0.1,7.1-1.4,9.8-3.6c-2.9,0.1-5.8-0.1-8.6-0.7c-1.4-0.3-3-1.2-2.8-2.6
		c2.5,1.5,5.9,1,7.9-1c-2.5,0.1-5.1-1.3-6.4-3.4c2.4,0.9,5.3,0.6,7.5-0.7c-1.8-0.8-3.1-2.6-3.7-4.5c-0.6-1.9-0.6-3.9-0.6-5.9
		c3.6,1.1,7.6,0.6,10.9-1.3c-2.8-0.4-5.3-2.3-6.5-4.8c5-0.5,9.9-2.7,13.6-6.1c2.2-2,4-4.6,4.5-7.5c0.6-2.9-0.3-6.2-2.7-8L66.6,47.8"
		/>
	<path class="st2" d="M111.1,40.7c1.1,2.4,3,4.4,4.7,6.4c5.2,6,9.2,12.9,11.8,20.3c-4.3-0.9-8.5-2.1-12.6-3.5"/>
	<path class="st2" d="M109.1,47.5c1.7,0.1,3,2.1,2.4,3.7c-0.6,1.6-2.9,2.2-4.3,1.2c-0.3-1.1-0.3-2.3,0-3.4c0.1-0.4,0.3-0.9,0.7-1.2
		C108.2,47.5,108.7,47.4,109.1,47.5z"/>
	<path class="st2" d="M115.3,63.4c-1,2-1.5,4.4-3.7,5c-1.7,0.5-4.9,0-6.7-0.1c-0.6,0-1.4-0.4-1.2-1"/>
	<path class="st2" d="M113,69.8c2.8,2.4,4.8,5.6,5.7,9.2c-2.9,2-6.7,2-10.1,2.6c-5.5,1-10.5,4.1-14,8.4"/>
	<path class="st2" d="M70.9,94.8c8.7,0.5,17.5-0.9,25.6-3.9c10.8,16.5,18,35.3,21.2,54.8"/>
	<path class="st2" d="M66.4,96.8c-4.3,11.5-8.5,23-12.8,34.5c-3,8.1-6,16.4-6.2,25.1c-0.2,8.7,2.9,17.9,10.1,22.8
		c5.8,4,13.2,4.6,20.2,4.1c4.5-0.3,8.9-1.1,13.2-2.2"/>
	<path class="st2" d="M112.6,175c-4.3,2.1-8.5,4.3-12.8,6.4c-1.9,0.9-4.2,1.9-6,0.7c-0.5-0.3-0.9-0.8-1.3-1.3
		c-6.5-8.2-13-16.3-19.6-24.5c-2.8-3.6-5.7-7.1-7.7-11.2c-3.3-6.9-3.8-15-1.4-22.3c2.1-6.4,7.7-12.7,14.4-12c4,0.4,7.3,3.1,9.9,6.2
		c6.9,8.3,9.5,19.4,11.2,30.1c1,6.7,1.8,13.4,2.2,20.2c3.6-1.1,7.2-2.2,10.8-3.3"/>
	<path class="st2" d="M181.9,156.1c-2.9,8.6-9.5,15.4-15.9,21.8c-2.6,2.7-5.3,5.4-8.5,7.3c-7.7,4.8-18.1,5.7-27,5.4
		c-7.7-0.3-12.2-5.8-14.6-12.9c-5.1-14.7-4-31.8,5.1-44.7c6.3-9,15.7-15.8,25.9-19.7c4.1-1.6,8.4-2.7,12.8-2.6
		c12,0.3,22.6,11.6,22.1,23.6"/>
	<path class="st2" d="M66.7,152.8c-0.7,7.7-1.1,15.4-1.2,23.1"/>
	<path class="st2" d="M50.3,171.8c-7.1,9-10,20.9-9.3,32.4s4.7,22.5,10,32.7c0.3,0.5,0.6,1.1,1.1,1.2c0.4,0.1,0.9,0,1.3-0.2
		c29.3-9.8,59-19.7,85-36.4c-3.9,0.8-7.8-1-11.4-2.8c-9.3-4.7-18.4-10-27.1-15.7"/>
	<path class="st2" d="M66.1,271.9c-7.6,0-15.1-2.6-21-7.4c-2.6-2.1-6.1-4.8-8.9-3c-2.6,1.6-2.1,5.5-0.8,8.3
		c2.8,6.5,8,11.9,14.3,15.1c-7.7,0-15.3,0-23,0c-3-7.6-6-15.2-7.4-23.3c-1.5-8-1.3-16.5,1.8-24.1c0.4-0.9,0.9-1.9,1.8-2.2
		c0.8-0.3,1.7,0.1,2.5,0.4c17,7.2,34.1,14.3,51.1,21.5c-2.6-0.9-5.8,0.3-7.9,2s-3.7,4-4.9,6.5c-0.9,1.8-1.6,3.7-1.7,5.7
		c-0.1,3.4,1.8,6.6,4.4,8.7s6.1,3.1,9.4,3.5c1.7,0.2,3.4,0.2,5-0.4s2.9-2.1,3-3.8c-2-0.3-3.7-1.8-4.6-3.6S78,272,78,270
		c-0.1-1.8,0-3.7,0.8-5.3c1.5-3.3,6.2-4.7,9.1-2.6c-7-6.6-13-14.4-17.7-22.8c-0.4-0.7-0.8-1.4-1.1-2.1"/>
	<path class="st2" d="M82.9,228.5c8.5,5.7,19.9,3.2,29.5-0.3c10.2-3.7,20.1-8.3,29.5-13.7c1.8,3.9,4.8,7.2,8.4,9.4
		c-3.2,4.2-5.7,9-7.3,14.1c8.7,2.8,17.7,4.5,26.8,5.2c0.7-5.8,0.1-11.7-1.6-17.3c-1.1,0-2.1,0-3.2,0c-0.8-6.5-4-12.4-7.1-18.1
		c-1-1.8-2-3.6-3.6-4.9c-3.1-2.4-7.5-2-11.4-1.5"/>
	<path class="st2" d="M152.2,245.8c2.4,13.1,4,26.3,5,39.6c19.1-1.8,38.7,6.8,57.1,1.3c-9.6-3.1-19.2-6.2-28.8-9.3
		c-4.2-1.4-8.5-2.8-11.9-5.6c-7.1-5.9-8.5-16.1-9.3-25.3"/>
	<path class="st2" d="M154.1,224.9c4.3,0.8,8.6,1.5,13,2.3"/>
	<path class="st2" d="M223.1,129.9c-0.4-0.9-0.6-2-0.5-3c0-0.3,0.1-0.6,0.3-0.8c0.1-0.1,0.3-0.2,0.5-0.3c1.1-0.4,2.3-0.6,3.4-0.2
		c1.1,0.4,2,1.5,1.8,2.6c-0.2,1.6-2,2.3-3.6,2.6c-0.4,0.1-0.9,0.1-1.3-0.1C223.4,130.5,223.2,130.2,223.1,129.9z"/>
	<path class="st2" d="M238.2,117.5c-16-0.6-32.5,5.6-42.7,18.3c5.3,0.4,10.7,0.7,16,0.7c-0.3,0,0.1,4.3,0.1,4.7
		c0.4,2.8,1.9,2.5,4.4,2.7c2.2,0.2,4.7,0,6.8,0.7c-2.4,1.7-5,3.6-7.7,4.7c-1.1,0.4-2.2,0.8-3.4,0.9c-0.8,0.1-2.3-0.2-2.9,0.4
		c-1.4,1.2,2.3,7.7,3.1,8.9c2.7,4,5.9,8,10.4,10.1"/>
	<path class="st2" d="M266.1,125.9c6.7,9.9,8.3,23.1,1.9,34.3c-3.5,6.1-10.8,8.1-17.5,8.7c-3.6,0.4-7.4,0.3-10.7-1
		c-3.4-1.3-6.4-4-7.3-7.5c4.7,1.2,9.9,0.8,14.3-1.2c1.5-0.6,3-1.6,3.4-3.1c0.5-1.6-0.5-3.3-1.8-4.3c-1.4-1-3.1-1.3-4.7-1.6
		c-3.8-0.6-7.6-1-11.5-1c3.6-3.1,7.3-6.1,10.9-9.2c-1.4-2.3-4.5-1.6-6.2-3.3s-0.4-4.4,1.7-5.1c-1.5,0-3.2-0.9-3.5-2.6
		c-0.3-2,1.8-4,3.8-3.5c-1.1-3.5-2.3-7-3.4-10.5c-0.3-0.9-0.6-1.9-0.2-2.8c1.7-3.6,11-0.5,13.8,0.5
		C256.2,115.2,262.1,120,266.1,125.9z"/>
	<path class="st2" d="M240.5,174.1c2.7,13.2,9.2,25.5,18.4,35.3c2.6,2.8,5.5,5.4,7.6,8.6c2.9,4.3,4.2,9.9,2.8,14.9
		c-1.4,5-5.6,9.3-10.8,10c-1.1,0.2-2.8-1-1.8-1.7"/>
	<path class="st2" d="M219.6,175.8c-8,4.4-13.1,13.1-14.2,22.1c-0.7,5.6-0.3,20.7,5.1,24.4c5.1,3.4,17.7-6.3,21.2-9.6"/>
	<path class="st2" d="M207.5,224.7c2.2,6.7,6.4,12.8,12,17.1c4.3,3.3,9.5,5.8,12.4,10.4c3.7,5.9,2.4,13.4,1,20.2
		c-0.5,2.5-1.1,5.1-2.4,7.4c-3.2,5.4-9.8,7.4-15.9,9c9.9-1.2,20-1.6,29.9-1.2c-4.4-6.7-4.8-15.7-1.1-22.8"/>
	<path class="st2" d="M222.2,194.6c9.3,8.1,12.9,20.9,14.3,33.1s1,24.7,4.3,36.6c0-3.3,1.3-6.6,3.5-9.1c2.3,3.8,5.7,6.9,9.6,9
		c0.1-2.6,0.3-5.1,0.4-7.7c1.3,1.6,3.1,2.8,5.1,3.3c0.4-2.5-0.2-5.2-1.5-7.4c1.8,0.5,3.7,1,5.5,1.5c-4.8-6.7-9.6-13.5-12.9-21.1
		s-4.8-16.1-2.9-24.2"/>
	<path class="st2" d="M241.7,173.2c-1.1,0.2-2.1,0.7-3.1,1.3c-7.7,4.3-15.6,9-20.3,16.4c-0.2-5.8,0.2-11.7,1.2-17.5
		c6.3-2.1,12.8-3.5,19.4-4.2C239.8,170.6,240.8,171.9,241.7,173.2z"/>
	<path class="st2" d="M230.7,206.7c2.4-4.3,8.4-6.2,12.8-4.2"/>
	<path class="st2" d="M102.9,232c5.4,16.1,6.2,33.4,6.8,50.5c-8.7-3.1-18.1-4.6-27.4-4.3"/>
	<path class="st2" d="M181.9,147.2c-4.7-1.5-9.9-1.5-14.6,0c0.4,3.3,4.2,4.7,7.3,6.1c7,3.1,12.5,9,17.1,15.1
		c4.6,6.2,8.5,12.9,13.5,18.7c0.4,0.5,1.4,0.8,1.5,0.2"/>
	<path class="st2" d="M187.7,138.7c0-1.1,0-2.3-0.7-3.2c-0.5-0.6-1.3-1-2.1-1.3c-3.4-1.1-7.3-0.8-10.5,1s-5.6,4.8-6.5,8.3"/>
	<path class="st2" d="M177.3,146.1c6.6-3,13.1-6.3,19.4-9.7c0.1-0.1,0.2-0.1,0.4-0.2"/>
	<path class="st2" d="M167.8,149.7c-3.1,1.6-5.8,3.9-8.5,6.2c-4.5,3.9-9,7.8-13.6,11.6c-0.6,0.5-1.2,1.2-0.9,1.8"/>
	<path class="st2" d="M190.7,144.9c2.3,3,2.8,6.8,4.3,10.2c2,4.7,5.6,8.6,9.8,11.7c4.2,3.1,9,5.3,13.8,7.4"/>
	<path class="st2" d="M143.2,168.1c4.7-1.4,8.8-4.5,12.9-7.2c4.6-3,9.4-5.6,14.3-7.9"/>
	<path class="st2" d="M180.8,147.5c7.4-1.8,14.6-4.8,21.1-8.9"/>
	<path class="st2" d="M136.7,174.3c0.8-1.6,2.9-5.9,4.8-3.5c1.6,2-1.6,5.7-2.4,7.5"/>
	<path class="st2" d="M145.3,167.9c-0.8,3.7-2,7.3-3.5,10.7"/>
	<path class="st2" d="M142.8,166.7c-2.9,3-5.8,6-8.7,9"/>
	<path class="st2" d="M61,224.5c-4.3-14.2-6.4-29.9-1.1-43.7"/>
	<path class="st2" d="M80.5,219.7c-0.3,0.4-0.8,0-1-0.4c-5.7-9-7.3-20-8.7-30.5"/>
	<path class="st2" d="M100.8,212.2c-10-2.2-17.5-11.1-20.4-20.8"/>
	<path class="st2" d="M116.4,204c-4,1.1-8.3-0.4-11.9-2.4c-6.3-3.4-11.8-8.3-15.9-14.2"/>
	<path class="st2" d="M158.5,125c0.7,2.4-0.7,4.9-3.1,5.6l0,0c-2.4,0.7-4.9-0.7-5.6-3.1l0,0c-0.7-2.4,0.7-4.9,3.1-5.6l0,0
		C155.3,121.2,157.8,122.6,158.5,125L158.5,125z"/>
	<path class="st2" d="M141.1,132.6c0,2.5-2,4.4-4.4,4.4l0,0c-2.5,0-4.4-2-4.4-4.4l0,0c0-2.5,2-4.4,4.4-4.4l0,0
		C139.1,128.1,141.1,130.1,141.1,132.6L141.1,132.6z"/>
	<path class="st2" d="M133.1,144.9c0,2.6-2.1,4.8-4.8,4.8l0,0c-2.6,0-4.8-2.1-4.8-4.8l0,0c0-2.6,2.1-4.8,4.8-4.8l0,0
		C130.9,140.1,133.1,142.3,133.1,144.9L133.1,144.9z"/>
	<path class="st2" d="M128.3,161.9c0,2.6-2.1,4.8-4.8,4.8l0,0c-2.6,0-4.8-2.1-4.8-4.8l0,0c0-2.6,2.1-4.8,4.8-4.8l0,0
		C126.1,157.2,128.3,159.3,128.3,161.9L128.3,161.9z"/>
</g>
</svg>
