<?xml version="1.0" encoding="utf-8"?>
<!-- Generator: Adobe Illustrator 17.1.0, SVG Export Plug-In . SVG Version: 6.00 Build 0)  -->
<!DOCTYPE svg PUBLIC "-//W3C//DTD SVG 1.1//EN" "http://www.w3.org/Graphics/SVG/1.1/DTD/svg11.dtd">
<svg version="1.1" xmlns="http://www.w3.org/2000/svg" xmlns:xlink="http://www.w3.org/1999/xlink" x="0px" y="0px"
	 viewBox="0 0 500 500" enable-background="new 0 0 500 500" xml:space="preserve">
<g id="图层_2">
	<rect width="500" height="500"/>
</g>
<g id="图层_4" display="none" opacity="0.15">
	<path display="inline" fill="none" stroke="#FFFFFF" stroke-miterlimit="10" d="M252.6,21.4c0.8,0.3,1.7,0.2,2.6,0.1
		c8-0.7,16.1-1.3,24.1-2"/>
	<path display="inline" fill="none" stroke="#FFFFFF" stroke-miterlimit="10" d="M266.1,5.7c2.2,6.3,2.4,13.1,2.5,19.8
		c0.2,10.3,0.3,20.6,0.5,30.8c0.3-0.4,0.2-1-0.1-1.3"/>
	<path display="inline" fill="none" stroke="#FFFFFF" stroke-miterlimit="10" d="M263.1,58.3c0.5-2.6,1.1-5.2,1-7.9
		c0-2.6-0.7-5.4-2.3-7.5c-0.2-0.3-0.5-0.6-0.6-0.9c-0.3-0.7-0.1-1.5,0.1-2.3c0.4-1.4,0.8-2.8,0.5-4.2c-0.2-1.4-1.3-2.7-2.7-2.8
		c-1.6-0.1-2.9,1.5-3,3.1c-0.1,1.6,0.5,3.2,1.2,4.6c0.3,0.6,0.5,1.2,0.5,1.8c0,0.8-0.4,1.5-0.8,2.2c-2.6,4.6-4,9.8-3.8,15.1
		c-0.1-0.8,0.1-1.6,0.6-2.3"/>
	<path display="inline" fill="none" stroke="#FFFFFF" stroke-miterlimit="10" d="M273.4,56c-0.1-2.5-0.1-5.1,0-7.6
		c0.1-2.5,0.5-5.3,2.4-6.9c0.4-0.3,0.8-0.6,1-1c0.2-0.3,0.2-0.7,0.2-1.1c0-1.3-0.3-2.6-0.5-4c-0.1-1.3,0-2.8,0.7-3.8
		c0.8-1.1,2.4-1.6,3.5-0.8c1.4,1.1,1.8,3.2,1.8,5c-0.1,1.8-0.5,3.7-0.3,5.5c0.2,1.6,0.9,3.1,1.5,4.6c1.5,4,2,8.4,1.5,12.7"/>
	<path display="inline" fill="none" stroke="#FFFFFF" stroke-miterlimit="10" d="M253.3,58.2c-12.9,13.3-30.1,21.5-46.9,29.5
		c-8,3.8-16,7.6-24.5,10.2c-5.2,1.6-10.6,2.7-16,3.8c-5.7,1.2-11.4,2.3-17.1,3.4c-8.9,1.8-18.3,3.5-27.1,1.1
		c-7.3-2-14.5-6.7-21.7-4.7c2.6,2.5,5.7,4.7,9,6.3c-1,0.1-1.9,0.6-2.6,1.3"/>
	<path display="inline" fill="none" stroke="#FFFFFF" stroke-miterlimit="10" d="M285.8,57.5c-1.2,2-1,4.6,0,6.7
		c1,2.1,2.6,3.8,4.2,5.5c4.8,5.1,9.7,10.3,15.4,14.5c6.9,5.1,14.8,8.7,22.7,12.1c19.5,8.3,39.4,15.7,59.3,23.1
		c9.4,3.5,19.5,7,29.1,4.4c4.1-1.1,8.1-3.3,12.3-2.8c-6.1,2.8-12.2,5.6-18.2,8.3"/>
	<path display="inline" fill="none" stroke="#FFFFFF" stroke-miterlimit="10" d="M403.2,118.6c-3.7-6.9-7.5-13.9-9-21.6
		c-1-4.9-1.1-9.9-1.2-14.8c-0.2-7.9-0.3-15.8-0.5-23.7c1.2,4.7,2.4,9.4,3.5,14.1c0.6,2.2,1.1,4.5,1.8,6.7c1.4,4.1,3.3,8,5.7,11.6"/>
	<path display="inline" fill="none" stroke="#FFFFFF" stroke-miterlimit="10" d="M411.9,77.4c-2.9,1.3-3.7,5-3.9,8.2
		c-0.8,11.1,0.9,22.3,4.9,32.7c0.4,1,0.8,2.1,0.6,3.2"/>
	<path display="inline" fill="none" stroke="#FFFFFF" stroke-miterlimit="10" d="M379.6,83.3c1.4-1.2,3.6-0.3,5.1,0.9
		c3,2.6,5,6.3,5.4,10.2"/>
	<path display="inline" fill="none" stroke="#FFFFFF" stroke-miterlimit="10" d="M115,98.3c0.2-3.4,1.8-6.6,3.3-9.7
		c2.5-5.2,4.7-10.6,6.5-16.1c1.6-4.8,2.9-9.7,5-14.2"/>
	<path display="inline" fill="none" stroke="#FFFFFF" stroke-miterlimit="10" d="M129.3,76.1c-0.4,0-0.3-0.6-0.1-0.9
		c4.7-7.2,8.6-15,11.6-23.1c0.2-0.5,0.4-1.1,0.9-1.4c0.4-0.3,1.2-0.3,1.5,0.2c0.1,0.2,0.1,0.4,0.1,0.5c0.9,9-1.7,18.2-6.4,25.9"/>
	<path display="inline" fill="none" stroke="#FFFFFF" stroke-miterlimit="10" d="M141.8,74.9c1-2,2.5-3.7,4.3-5
		c-0.2,2.5-1.5,4.8-2.8,7c-4.8,8.1-10.2,15.8-15.9,23.3c-0.1,0.2-0.3,0.4-0.5,0.3c-0.2-0.1,0-0.5,0.1-0.3"/>
	<path display="inline" fill="none" stroke="#FFFFFF" stroke-miterlimit="10" d="M104,112.5c5.8,8.4,9.9,18,12,28
		c4.2,19.7,0.7,40.1-0.8,60.1c-2.1,28.8,12,274.1,4.9,299.4"/>
	<path display="inline" fill="none" stroke="#FFFFFF" stroke-miterlimit="10" d="M111.9,113.7c0.9,3,3.3,5.3,4.8,8.1
		c1.5,2.9,2,6.3,2.4,9.5c0.3,2.4,0.6,4.7,1,7.1"/>
	<path display="inline" fill="none" stroke="#FFFFFF" stroke-miterlimit="10" d="M121.3,117.3c-0.4,2.3,0.8,4.5,1.7,6.7
		c2,4.9,2.6,10.4,1.6,15.6"/>
	<path display="inline" fill="none" stroke="#FFFFFF" stroke-miterlimit="10" d="M113.7,111c9.5,3.5,19.9,4,30,2.7
		c10.1-1.3,22.1-0.7,31.6-4.2c22.1-8.1,70.7-29.1,83.9-45.7"/>
	<path display="inline" fill="none" stroke="#FFFFFF" stroke-miterlimit="10" d="M395.6,130.3c-23-8.3-46-16.5-69-24.8
		c-4.1-1.5-8.2-3-12.1-5c-7.8-4.3-14.1-10.8-20.2-17.3"/>
	<path display="inline" fill="none" stroke="#FFFFFF" stroke-miterlimit="10" d="M257.5,81.5c2.5-1,5.2-0.9,7.8-0.5
		c3.7,0.5,7.3,1.7,10.7,3.4c-2.6-5.1-5.7-10-9.2-14.5c-4.9,7.2-14.2,11.2-17.1,19.5C251.6,86.1,254,82.9,257.5,81.5z"/>
	<path display="inline" fill="none" stroke="#FFFFFF" stroke-miterlimit="10" d="M142.7,121c-3.4,0.2-4.7,4.5-5,7.9
		c-1.7,18.1-1,36.4-0.3,54.6c0.8,19.4,2.2,56.8,2.1,54.7c-0.3-7.2,0.6,14.4,1.2,21.5c0.8,8.2,11.5,217.6,13.3,225.6"/>
	<path display="inline" fill="none" stroke="#FFFFFF" stroke-miterlimit="10" d="M392.5,129.3c-0.3,12.4,2.1,24.8,2.5,37.2
		c1.2,35.2-29.9,294-29.6,326"/>
	<path display="inline" fill="none" stroke="#FFFFFF" stroke-miterlimit="10" d="M415.3,127.1c-0.5-0.2-1.1-0.5-1.6-0.7
		c-6,11.2-4.6,24.8-3.5,37.6c2.7,32.2,2,64.7-2.1,96.8c-0.1,1-15.8,235.1-16.3,235.9"/>
	<path display="inline" fill="none" stroke="#FFFFFF" stroke-miterlimit="10" d="M385.7,148.1c9.4-0.2,18.9-0.3,28.3-0.5"/>
	<path display="inline" fill="none" stroke="#FFFFFF" stroke-miterlimit="10" d="M394.3,132c0-0.9,0-1.7,0.1-2.6
		c7.3,1.8,15.1,1,21.9-2.1"/>
	<path display="inline" fill="none" stroke="#FFFFFF" stroke-miterlimit="10" d="M392.3,133.4c3.4,1.2,7,1.2,10.6,1.3
		c2.6,0,5.2,0,7.8,0c2.1,0,4.4,0,6-1.3"/>
	<path display="inline" fill="none" stroke="#FFFFFF" stroke-miterlimit="10" d="M398.5,130.4c0.3-0.3,0.7,0.2,0.8,0.7
		c1,8.3,0.1,16.9-2.6,24.9"/>
	<path display="inline" fill="none" stroke="#FFFFFF" stroke-miterlimit="10" d="M404.9,129.7c0.1,7.9,0.2,15.8,0.3,23.7"/>
	<path display="inline" fill="none" stroke="#FFFFFF" stroke-miterlimit="10" d="M165.2,125.8c8.8,1.4,17.6,2.8,26.5,4.2
		c10,1.6,20.3,3.2,30.3,1.3c-0.9-2.6-3.1-4.3-5-6.3c-6.6-7.2-7.9-18.8-2.9-27.2c-20.1,7.2-39.4,16.5-57.6,27.8
		C159.4,124.9,162.4,125.4,165.2,125.8z"/>
	<path display="inline" fill="none" stroke="#FFFFFF" stroke-miterlimit="10" d="M369.3,136c-9.7-0.8-20.4-11.6-30-14.9
		c-5.1-1.8-9.8-2.8-14.3-6.1c-1.5-1.1-12.9-9.8-12.9-10.9c-0.3,13-6.8,25.7-17.1,33.5c24.5-2.2,47.8-2.4,72.5-0.6
		c-0.3-0.3-0.6-0.5-1-0.8"/>
	<path display="inline" fill="none" stroke="#FFFFFF" stroke-miterlimit="10" d="M264.1,103.7c8.4-0.4,16.9,0.8,24.9,3.4
		c-6.7,1.6-13.4,3.2-20.2,4.8c5.7,3.8,9.9,9.8,11.7,16.4c-4.9-2.1-9.9-4.1-15-5.8c-1.8,4.7-4.7,8.9-8.4,12.3
		c-1.8-4.5-3.1-9.2-4.1-14c-6.8,0.6-13.6,1.6-20.4,3c4-4,8.6-7.4,13.6-9.9c-6.6-1-13.1-3-19.1-5.9c9-2.2,18.3-3.4,27.6-3.8
		c2.8-5.3,5.7-10.7,8.5-16C262.3,93.3,262.5,98.7,264.1,103.7z"/>
	<path display="inline" fill="none" stroke="#FFFFFF" stroke-miterlimit="10" d="M108,121.3c11.5,1.6,23.1,2.4,34.7,2.5"/>
	<path display="inline" fill="none" stroke="#FFFFFF" stroke-miterlimit="10" d="M113.3,137.5c7.5-0.8,15.1-1.1,22.7-0.9"/>
	<path display="inline" stroke="#FFFFFF" stroke-miterlimit="10" d="M251.3,227.6c-12.1-1.2-20.7-12.6-25.4-23.8
		c-1.8-4.2-3.3-8.7-3.3-13.3c-0.1-11.9,10.1-22.2,21.8-24.7s23.9,1.7,33.6,8.6c2.4,1.7,4.7,3.6,6.2,6.1c1.7,2.8,2.2,6.2,2.6,9.5
		c0.6,5.4,0.9,10.9,0.9,16.3c0,4-0.2,8.3-2.2,11.8c-3,5.4-9.2,8.1-15.2,9.8C260.9,230.7,261,228.6,251.3,227.6z"/>
	<path display="inline" fill="none" stroke="#FFFFFF" stroke-miterlimit="10" d="M209.1,193.1c1-9.6,8.2-17.5,16.1-23
		c5.4-3.7,11.4-6.6,17.7-8.6c9.3-2.9,19.6-3.7,28.5,0c4.9,2,9.1,5.3,13.2,8.7c9.4,8,18.6,18.3,18.6,30.6c0,5.9-2.2,11.6-4.7,16.9
		c-3.3,7-7.6,14-14.4,17.6c-7.5,4-16.6,3-25,1.6c-8.6-1.4-17.3-3.3-25.1-7.3c-7.1-3.6-13.4-8.9-18.1-15.4
		C211.4,208.1,208.3,200.6,209.1,193.1z"/>
	<path display="inline" fill="none" stroke="#FFFFFF" stroke-miterlimit="10" d="M119.4,141.8c17.3-1.9,34.6-3.9,52-3.3
		c14.2,0.5,28.3,2.8,42.4,4.6c68.3,8.8,137.5,7.6,206.3,3.5"/>
	<path display="inline" fill="none" stroke="#FFFFFF" stroke-miterlimit="10" d="M54.2,296.1c-0.6-4.2,1.2-8.3,2.1-12.4
		c3-13.9,5.7-16.1,8.9-24.1c2.8-7.2,5.9-14.5,11.1-20.2c1.2-1.3,2.6-2.6,4.4-2.9c3.6-0.7,6.7,2.7,8.8,5.7
		c10.1,14.2,19.7,28.6,28.9,43.4c0.1-1.2,0.2-2.4,0.2-3.5"/>
	<path display="inline" fill="none" stroke="#FFFFFF" stroke-miterlimit="10" d="M408.4,262.4c-0.5-0.9-0.1-2,0.4-2.9
		c10.8-20,24-38.6,39.2-55.4c6.4,20.5,10.3,41.8,11.7,63.2"/>
	<path display="inline" fill="none" stroke="#FFFFFF" stroke-miterlimit="10" d="M68.6,273c8-2.6,16.4-4,24.8-4.3"/>
	<path display="inline" fill="none" stroke="#FFFFFF" stroke-miterlimit="10" d="M77,254c2,10,4,19.9,7.4,29.5"/>
	<path display="inline" fill="none" stroke="#FFFFFF" stroke-miterlimit="10" d="M428,243.4c7.8-0.4,15.6-0.2,23.3,0.6"/>
	<path display="inline" fill="none" stroke="#FFFFFF" stroke-miterlimit="10" d="M443.2,225.3c-0.3,1.8-0.6,3.7-1,5.5
		c-1.5,8.6-3,17.3-4.5,25.9"/>
	<path display="inline" fill="none" stroke="#FFFFFF" stroke-miterlimit="10" d="M189,337.4c-1.2-6.6,3-17.5,3-24.2
		c2.5,7.3,6.6,13.9,7.1,22.7c0.7,11.8,0.2,19.4,4.1,18.7"/>
	<path display="inline" fill="none" stroke="#FFFFFF" stroke-miterlimit="10" d="M200.9,364.2c7,42.9,10.3,86.4,9.8,129.9
		c-1.6-2.6-2-5.8-1.3-8.7"/>
	<path display="inline" fill="none" stroke="#FFFFFF" stroke-miterlimit="10" d="M202.8,353.8c14.9-32.4,30.4-64.6,46.5-96.5
		c23.4,26.4,40.3,57.8,57,88.9c1-0.8,1-0.3,1.2-1.5c2.5-12.6,6.9-24.8,13.1-36c0,0.9,0,1.8,0.1,2.7"/>
	<path display="inline" fill="none" stroke="#FFFFFF" stroke-miterlimit="10" d="M256.1,300.8c-2.4,1.2-4.8,2.5-7.5,2.8
		c-2.7,0.3-5.6-0.5-7.2-2.7c-1-1.5-1.3-3.4-1.2-5.2c0.4-8.3,8.9-15.3,17.1-14.1c0.8,0.1,1.5,0.3,2.2,0.7c0.8,0.5,1.3,1.4,1.7,2.4
		c1.6,4.2,0.4,9-2.2,12.7C256.5,301.1,260,298.7,256.1,300.8z"/>
	<path display="inline" fill="none" stroke="#FFFFFF" stroke-miterlimit="10" d="M346.7,154.6c0.5,19,1,38,1.5,56.9
		c0.6,22.8,1.2,45.6,1,68.4c-0.5,55.4-5.7,110.6-10.9,165.8"/>
	<path display="inline" fill="none" stroke="#FFFFFF" stroke-miterlimit="10" d="M324,148.7c6.9,55.9,6.6,112.7-0.9,168.5"/>
	<path display="inline" fill="none" stroke="#FFFFFF" stroke-miterlimit="10" d="M193,147.3c-0.9,50.4-0.6,100.9,0.9,151.3"/>
	<path display="inline" fill="none" stroke="#FFFFFF" stroke-miterlimit="10" d="M173.7,147.3c0.1,14.2,3.1,35,2.9,43.4
		c-0.8,32.3-0.7,47.1-0.7,94.1"/>
	<path display="inline" fill="none" stroke="#FFFFFF" stroke-miterlimit="10" d="M192,251.7c32.4-1.7,64.8-3.5,97.2-5.2
		c11.7-0.6,23.8-1.2,34.9,2.5"/>
	<path display="inline" fill="none" stroke="#FFFFFF" stroke-miterlimit="10" d="M196,286.9c14.2-0.4,28.5-1.2,42.6-2.6"/>
	<path display="inline" fill="none" stroke="#FFFFFF" stroke-miterlimit="10" d="M269.3,282.9c17.1,0.2,34.3-0.3,51.3-1.4"/>
	<path display="inline" fill="none" stroke="#FFFFFF" stroke-miterlimit="10" d="M296.8,243.3c0.2,13.5,0.5,26.9,0.7,40.4
		c0,2,0.1,4,0.9,5.8"/>
	<path display="inline" fill="none" stroke="#FFFFFF" stroke-miterlimit="10" d="M270.7,248.7c-0.1,9.3-0.1,18.6-0.2,27.9
		c0,4,0.1,8.5,2.7,11.5"/>
	<path display="inline" fill="none" stroke="#FFFFFF" stroke-miterlimit="10" d="M228.4,246.7c-1.9,13.4-2.6,27.1-2.2,40.6"/>
	<path display="inline" fill="none" stroke="#FFFFFF" stroke-miterlimit="10" d="M204.4,250.7c0.4,3.6,0.9,7.2,1.3,10.9
		c0.6,5.3,1.3,10.6,1.2,15.9c-0.1,6-1,12.8,3,17.3"/>
	<path display="inline" fill="none" stroke="#FFFFFF" stroke-miterlimit="10" d="M136.4,261.6c17.8-5.4,20.3-1.6,35.2-5.2"/>
	<path display="inline" fill="none" stroke="#FFFFFF" stroke-miterlimit="10" d="M139.3,286.7c-0.7-0.1-1.3-0.3-2-0.4
		c16.9,0.1,33.8-0.8,50.6-2.6"/>
	<path display="inline" fill="none" stroke="#FFFFFF" stroke-miterlimit="10" d="M348.7,283.3c12,0.3,24,0.7,36,1"/>
	<path display="inline" fill="none" stroke="#FFFFFF" stroke-miterlimit="10" d="M346.6,248.9c8.1-0.6,16.3-1,24.4-1.1
		c5.6-0.1,11.5,0,16.3,2.8"/>
	<path display="inline" fill="none" stroke="#FFFFFF" stroke-miterlimit="10" d="M366.7,151.3c3.8,43.9,7.5,88.5-1.9,131.5"/>
	<path display="inline" fill="none" stroke="#FFFFFF" stroke-miterlimit="10" d="M350.7,193.8c13.1-0.7,26.2-1.4,39.3-2.1"/>
	<path display="inline" fill="none" stroke="#FFFFFF" stroke-miterlimit="10" d="M139.3,198.8c10.9-1,31.4-3.3,36.6-2.4"/>
	<path display="inline" fill="none" stroke="#FFFFFF" stroke-miterlimit="10" d="M150.5,142c2.8,38.7,8.8,103.3,12.2,142"/>
	<path display="inline" fill="none" stroke="#FFFFFF" stroke-miterlimit="10" d="M470,217.4c3.6,32.9,3.6,66.1,0.2,99
		c-2,18.8-5.1,37.5-6.7,56.3c-1.7,20.9-1.5,41.9-1.4,62.9c0.2,17.2,0.3,34.4,0.5,51.6"/>
	<path display="inline" fill="none" stroke="#FFFFFF" stroke-miterlimit="10" d="M35.9,242.7c1.9,28.3,7.7,56.1,10.9,84.3
		c3.1,27.7,3.6,55.7,1.5,83.6c-1.7,21.8-4.9,43.7-2.9,65.6"/>
	<path display="inline" fill="none" stroke="#FFFFFF" stroke-miterlimit="10" d="M49.6,470.7c0-19.2,15.8-105.7,32.2-126.9
		c0.4-0.5,0.8-1,1.4-1.1c0.7-0.1,1.3,0.4,1.8,0.9c20.3,19.2,24.9,49.5,25.3,77.4c0.3,20.8,2.9,38.2-2.2,63.1"/>
	<path display="inline" fill="none" stroke="#FFFFFF" stroke-miterlimit="10" d="M61.4,480.1c-0.7-22,3-43.8,6.7-65.5
		c0.9-5.4,2-11.1,5.3-15.5c1.3-1.7,3.2-3.3,5.4-3.1c2.4,0.2,4,2.5,5.2,4.5c13.7,24.2,12.4,53.7,10.7,81.4"/>
	<path display="inline" fill="none" stroke="#FFFFFF" stroke-miterlimit="10" d="M68.3,392.3c2.9-5.3,7.4-10.6,13.4-11.1
		c4.8-0.4,9.5,2.4,12.4,6.3c2.9,3.9,4.4,8.6,5.7,13.3c2.7,9.8,4.6,19.8,5.7,29.9"/>
	<path display="inline" fill="none" stroke="#FFFFFF" stroke-miterlimit="10" d="M78.9,371c-2.7-3.4-0.2-9.4,4.1-9.8s7.9,5,5.9,8.8
		C85.8,371.4,82.2,371.7,78.9,371z"/>
	<path display="inline" fill="none" stroke="#FFFFFF" stroke-miterlimit="10" d="M409,409.9c2.3-10.4,4.7-20.9,7-31.3
		c1.3-5.7,2.6-11.5,5.8-16.3c3.2-4.8,8.7-8.6,14.4-8.1c13.7,38.6,10.4,80.9,6.9,121.8"/>
	<path display="inline" fill="none" stroke="#FFFFFF" stroke-miterlimit="10" d="M434.2,380c0.8-2.3-1.2-4.8-3.6-5.4
		c-2.3-0.6-4.8,0-7.2,0.4c-0.9,2.5,0,5.6,2.2,7.1s5.4,1.3,7.4-0.5C433.5,381.1,434,380.6,434.2,380z"/>
	<path display="inline" fill="none" stroke="#FFFFFF" stroke-miterlimit="10" d="M436.5,471c1.4-16.1,0.2-32.3-3.6-48
		c-0.7-3.1-1.6-6.3-3.7-8.7c-10.1-12.1-12.2,10.3-13,16.2c-2.3,16.6-3.9,33.5-2.4,50.2c0.5-2.2,1-4.5,1.5-6.7"/>
	<path display="inline" fill="none" stroke="#FFFFFF" stroke-miterlimit="10" d="M413.5,415.3c-0.7-10.2,6-20.4,15.7-23.7
		c0.5,3.9,2.8,7.6,6.1,9.8"/>
	<path display="inline" fill="none" stroke="#FFFFFF" stroke-miterlimit="10" d="M53,297.7c1.5-1.4,3.3-2.2,5.2-3
		c10.7-4.4,22.3-6,33.7-7.5c5.6-0.8,11.2-1.5,16.9-2.3"/>
	<path display="inline" fill="none" stroke="#FFFFFF" stroke-miterlimit="10" d="M404.6,280.4c18-1.4,36-2.9,54-4.3"/>
	<path display="inline" fill="none" stroke="#FFFFFF" stroke-miterlimit="10" d="M406.7,285.5c17.6-0.4,35.1-0.9,52.7-1.3"/>
	<path display="inline" fill="none" stroke="#FFFFFF" stroke-miterlimit="10" d="M406,293.6c18.4-0.5,36.9-0.9,55.3-1.4"/>
	<path display="inline" fill="none" stroke="#FFFFFF" stroke-miterlimit="10" d="M59.3,303.3c11.7-2.4,23.4-4.7,35.2-7.1
		c4.5-0.9,9-1.8,13.5-1.6"/>
	<path display="inline" fill="none" stroke="#FFFFFF" stroke-miterlimit="10" d="M61.4,309.7c11.6-3.1,23.3-5.5,35.2-7.2"/>
	<path display="inline" fill="none" stroke="#FFFFFF" stroke-miterlimit="10" d="M148.6,341.8c7.2-2.8,29-4.1,36.7-3.7"/>
	<path display="inline" fill="none" stroke="#FFFFFF" stroke-miterlimit="10" d="M56.7,341.5c18.6-4,37.6-6.5,56.6-7.6"/>
	<path display="inline" fill="none" stroke="#FFFFFF" stroke-miterlimit="10" d="M60.7,320c0.9,14.4,1.4,28.9,1.5,43.3"/>
	<path display="inline" fill="none" stroke="#FFFFFF" stroke-miterlimit="10" d="M71.5,318c0,11.3,0.1,22.7,0.1,34"/>
	<path display="inline" fill="none" stroke="#FFFFFF" stroke-miterlimit="10" d="M94.3,313.4c1.2,14.3,2.9,28.5,5,42.7"/>
	<path display="inline" fill="none" stroke="#FFFFFF" stroke-miterlimit="10" d="M414.7,329.1c14.3-2.7,28.8-4.8,43.3-6.2"/>
	<path display="inline" fill="none" stroke="#FFFFFF" stroke-miterlimit="10" d="M447,300c-0.4,18.2-0.2,36.5,0.6,54.7"/>
	<path display="inline" fill="none" stroke="#FFFFFF" stroke-miterlimit="10" d="M435.1,303.4c1.9,13.9,2.1,28,0.7,42"/>
	<path display="inline" fill="none" stroke="#FFFFFF" stroke-miterlimit="10" d="M421.1,298c1,17.8,0.4,35.7-1.8,53.3"/>
	<path display="inline" fill="none" stroke="#FFFFFF" stroke-miterlimit="10" d="M315.3,310c2.9,1.8,3.4,5.7,3.5,9
		c2.7,54.9,3.4,110,1.9,165"/>
	<path display="inline" fill="none" stroke="#FFFFFF" stroke-miterlimit="10" d="M224.9,488c-0.4-31.5-0.7-63-1.1-94.5
		c-0.1-6.3,0-13.1,3.9-18c5.2-6.6,14.8-7.2,23.2-7.2c11.6,0,23.5,0,34.7,3.2c4.2,33.9,9.1,87,3.9,118.8"/>
	<path display="inline" fill="none" stroke="#FFFFFF" stroke-miterlimit="10" d="M254,376.1c-6.6-3.3-14.7-0.2-20.6,4.3
		c-0.9,0.7-1.8,1.4-2.3,2.4c-0.7,1.4-0.7,3-0.6,4.6c1,21.8-1.9,74.7,0,95.3"/>
	<path display="inline" fill="none" stroke="#FFFFFF" stroke-miterlimit="10" d="M239.4,484c-3.6-15.8-0.8-69.6,0.5-85.8
		c0.3-3.4,0.7-6.9,2.4-9.8c1.7-2.9,5-5.2,8.3-4.7c7.5,1.2,14,0.7,18.3,6.9c1.4,2,2.1,4.5,2.7,6.9c8.3,32.9,10.3,54.3,7.6,92.5"/>
	<path display="inline" fill="none" stroke="#FFFFFF" stroke-miterlimit="10" d="M250,310.9c-4.4,1-11.5,10.8-14,14.6
		c-2.1,3.1-2.8,7-3.5,10.7c-1.5,8.6-3.1,17.2-4.6,25.8c16-4.3,32.8-5.4,49.2-3.1c3.4-12.1-2.7-24.5-8.6-35.6
		C267.6,321.7,254.4,309.9,250,310.9z"/>
	<path display="inline" fill="none" stroke="#FFFFFF" stroke-miterlimit="10" d="M310,363.4c5.5-2.8,11.7-4.4,18-4.5"/>
	<path display="inline" fill="none" stroke="#FFFFFF" stroke-miterlimit="10" d="M310.3,347.4c2.5,46.9,0.5,94-5.8,140.5"/>
	<path display="inline" fill="none" stroke="#FFFFFF" stroke-miterlimit="10" d="M188.8,372.2c4.8-1,4.7,0.9,13.3-0.8"/>
	<path display="inline" fill="none" stroke="#FFFFFF" stroke-miterlimit="10" d="M188.3,336c1.1,35.4,3.7,50.9,5.7,68.1
		c3.1,27,3,54.2,4.6,81.3"/>
	<path display="inline" fill="none" stroke="#FFFFFF" stroke-miterlimit="10" d="M164.7,304.3c5.9,73.7,10.5,127.1,17.7,200.7"/>
	<path display="inline" fill="none" stroke="#FFFFFF" stroke-miterlimit="10" d="M348,291.2c12.4,0.7,25,0.4,37.4-0.9"/>
	<path display="inline" fill="none" stroke="#FFFFFF" stroke-miterlimit="10" d="M346.7,296c9.6,0,19.1,0,28.7,0"/>
	<path display="inline" fill="none" stroke="#FFFFFF" stroke-miterlimit="10" d="M272.7,289.6c16.3-0.4,32.5-1.7,48.6-3.9"/>
	<path display="inline" fill="none" stroke="#FFFFFF" stroke-miterlimit="10" d="M274,294.3c15.6-0.7,31.1-1.5,46.7-2.2"/>
	<path display="inline" fill="none" stroke="#FFFFFF" stroke-miterlimit="10" d="M141.9,295.4c28.8-3.6,57.8-5.1,86.8-4.6"/>
	<path display="inline" fill="none" stroke="#FFFFFF" stroke-miterlimit="10" d="M150,303c24-1.3,48-1.9,72-1.8"/>
	<path display="inline" fill="none" stroke="#FFFFFF" stroke-miterlimit="10" d="M344,387.3c9.9-2,19.9-2.8,30-2.4"/>
	<path display="inline" fill="none" stroke="#FFFFFF" stroke-miterlimit="10" d="M340,392.6c2.4-1.5,5.5-0.3,8.4,0
		c8.5,1,17.1-6.5,25-3.3"/>
	<path display="inline" fill="none" stroke="#FFFFFF" stroke-miterlimit="10" d="M341.5,398.6c10.5-2.2,21.1-3.7,31.9-4.3"/>
	<path display="inline" fill="none" stroke="#FFFFFF" stroke-miterlimit="10" d="M148,401.6c9.1-0.4,18.2-0.7,27.4-1.1"/>
	<path display="inline" fill="none" stroke="#FFFFFF" stroke-miterlimit="10" d="M142.7,415c14.7,0.1,29.5-1,44-3.5"/>
	<path display="inline" fill="none" stroke="#FFFFFF" stroke-miterlimit="10" d="M160.7,408c-0.5-1,1.1-1.8,2.2-2
		c9.7-1.2,19.5-2.3,29.2-3.5"/>
</g>
<g id="图层_3">
	<path fill="none" stroke="#FFFFFF" stroke-miterlimit="10" d="M252.6,21.4c9.6-1.9,22.4-2.4,27.9-1.9"/>
	<path fill="none" stroke="#FFFFFF" stroke-miterlimit="10" d="M266.1,2.5c3.2,16.8,5.4,39.3,3,53.8"/>
	<path fill="none" stroke="#FFFFFF" stroke-miterlimit="10" d="M273.3,57.5c0.1-1.5-2.1-13.7,3.6-16.9c0,0-2.2-9.3,2.4-10
		s3,10.9,3,10.9s4.3,8.5,3,17.3S312,88.5,334,99.4c22.7,11.3,50.6,23.1,69.5,24.7c19,1.6,30.8-7.3,26.2-3.2
		c-7.3,6.4-17.2,8.4-22,8.4c-13.3,0-25.5-4.2-45.4-9.3c-18.4-4.7-30.1-9.8-68-36.7"/>
	<path fill="none" stroke="#FFFFFF" stroke-miterlimit="10" d="M412.3,132c-2,4.2-2.4,88.4-4,119.7s-13.8,209.9-15,226.3"/>
	<path fill="none" stroke="#FFFFFF" stroke-miterlimit="10" d="M391.8,133.4c1.4,11.4-0.3,69.4-3.3,103.4
		c-3,34.1-23.1,189.8-23.7,243.9"/>
	<path fill="none" stroke="#FFFFFF" stroke-miterlimit="10" d="M480.7,311.5"/>
	<path fill="none" stroke="#FFFFFF" stroke-miterlimit="10" d="M411.9,77.4c-3.9,8.2-3.6,23.1-1.2,41.2"/>
	<path fill="none" stroke="#FFFFFF" stroke-miterlimit="10" d="M403.5,90.9c0,0-8.5-13.7-11.7-33.4c0,0-2.5,21.6,2.4,39.6
		s-1.6,16.5-1.7,19.5"/>
	<path fill="none" stroke="#FFFFFF" stroke-miterlimit="10" d="M378.5,83.3c0,0,7.8-1.5,13.2,18.5"/>
	<path fill="none" stroke="#FFFFFF" stroke-miterlimit="10" d="M277.5,65"/>
	<path fill="none" stroke="#FFFFFF" stroke-miterlimit="10" d="M277.5,63.8c0,0-14.3-1.4-18.3,0c0.4,0.8-57.5,36.6-85.5,45.2
		c-23,7-53,5.8-64.2,0s-16-18.3-16.3-17.5c0,0,14.6,15.8,43.3,15.5c29.4-0.2,98.4-25.5,116.5-47.4c0,0-1.7-13.4,4.5-16.4
		c0,0-4.6-11.3,0.5-10.3c5.1,1-0.9,9,1.1,9c2,0.1,4.7,9.5,3.9,16.3c0,0-0.7,1.2,12.9,0.4"/>
	<path fill="none" stroke="#FFFFFF" stroke-miterlimit="10" d="M111.9,142.1c7.5-2.3,39.3-4.6,80.5,0c41.2,4.6,148.5,8.8,178.2,7.2
		c29.7-1.6,39.3-7.3,51-3.9"/>
	<path fill="#FCFAFA" stroke="#FFFFFF" stroke-miterlimit="10" d="M251.6,84.9c0.8-0.1,8.7-4.1,14.3-11.4c0,0,2.3,6.4,12,11.9
		c0,0-6.5-4-12.6-4.6C259.4,80.1,251.6,84.9,251.6,84.9z"/>
	<path fill="#FCFAFA" stroke="#FFFFFF" stroke-miterlimit="10" d="M178,124.4c-0.4,0.1,26.7-13.1,38.6-17.9c0,0-14.1,12.6,5.5,18.6
		C222,125,192.1,121.6,178,124.4z"/>
	<path fill="#FCFAFA" stroke="#FFFFFF" stroke-miterlimit="10" d="M304.2,109.3c0,0,21.8,14.9,36.2,16.3c0,0-18.2,3.9-44.8,2.5
		C295.6,128.1,317.6,117.9,304.2,109.3z"/>
	<path fill="none" stroke="#FFFFFF" stroke-miterlimit="10" d="M696,238.2"/>
	<path fill="#FFFFFF" stroke="#FFFFFF" stroke-miterlimit="10" d="M289,107.1c-11,0.4-20.9-6.6-20.9-6.6c-3.5-5.5-2.4-13.5-2.4-13.5
		s-6.7,9.4-14.6,14.8s-22.4,5-22.4,5s13.7,1.5,13.1,9.7c-0.6,8.2-10.4,12.5-10.4,12.5s0,0,7.3-2.6c7.3-2.6,12.4-0.3,12.4-0.3
		c5.9,4.4,7,11.6,7,11.6s3.7-8.3,10.1-11.3s11.2,1,11.2,1c-3-5-3.4-13.5-3.4-13.5C277.6,111.1,289,107.1,289,107.1z M270.6,114.3
		c-3.4,8.6-10.6,11.2-17.9,8.3c-7.3-2.9-6.7-10.7-1.6-15.8C257.5,100.4,274,105.7,270.6,114.3z"/>
	<path fill="none" stroke="#FFFFFF" stroke-miterlimit="10" d="M134,98.3c0,0,13.7-20.3,16.5-31.3c0,0-4.3,6.3-8.8,7.9"/>
	<path fill="none" stroke="#FFFFFF" stroke-miterlimit="10" d="M111.9,98.3c-0.3-1,12.2-17.4,14.8-38.7c0,0,2.7,5.4,3,7.4"/>
	<path fill="none" stroke="#FFFFFF" stroke-miterlimit="10" d="M128,77.2c0,0,13.7-11.8,19.3-31c0,0-6.7,20.9-13.3,37.4"/>
	<path fill="none" stroke="#FFFFFF" stroke-miterlimit="10" d="M145.3,121.3c0,0-7.5-3-8.9,7.9c-1.4,10.9,8.6,175.6,8.9,216.1
		c0.3,40.8,8.7,142.5,8.7,142.6"/>
	<path fill="none" stroke="#FFFFFF" stroke-miterlimit="10" d="M105.2,114.3c0,0,9.5,9,10.8,35.4c0.9,18,2.3,86.1,2.7,136.9
		c0.2,23.9,0.2,44-0.1,53.2c-1,28.8,6,116.1,1.7,138.1"/>
	<path fill="none" stroke="#FFFFFF" stroke-miterlimit="10" d="M395.7,131.7c5.2,10.4,3.6,19.4,3.3,24.2"/>
	<path fill="none" stroke="#FFFFFF" stroke-miterlimit="10" d="M406.7,133.4"/>
	<path fill="none" stroke="#FFFFFF" stroke-miterlimit="10" d="M404.6,155.9c0-8.4,2-26.6,2-26.6"/>
	<path fill="none" stroke="#FFFFFF" stroke-miterlimit="10" d="M116,117.3c0,0,8.4,16.7,6.3,29.2"/>
	<path fill="none" stroke="#FFFFFF" stroke-miterlimit="10" d="M126.7,118.6"/>
	<path fill="none" stroke="#FFFFFF" stroke-miterlimit="10" d="M124.6,118.6c0,0,3.8,22.5,2.1,29.5"/>
	<path fill="none" stroke="#FFFFFF" stroke-miterlimit="10" d="M111.1,148.7c0,0,62.7,0.9,91,2.6s124.1,4.7,148.6,4
		c24.7-0.8,52.7-6.1,68.7-4.9"/>
	<path fill="none" stroke="#FFFFFF" stroke-miterlimit="10" d="M255.1,162.7"/>
	<path fill="none" stroke="#FFFFFF" stroke-miterlimit="10" d="M137.3,294.6"/>
	<path fill="none" stroke="#FFFFFF" stroke-miterlimit="10" d="M279.1,281.9c0,0,25,1.4,33,0.5s16.8-1.8,16.8-1.8"/>
	<path fill="none" stroke="#FFFFFF" stroke-miterlimit="10" d="M349.1,281.5c0,0,26.7,2.8,32.5,2.7"/>
	<path fill="none" stroke="#FFFFFF" stroke-miterlimit="10" d="M349.1,288.2"/>
	<path fill="none" stroke="#FFFFFF" stroke-miterlimit="10" d="M384.7,290.7"/>
	<path fill="none" stroke="#FFFFFF" stroke-miterlimit="10" d="M349.1,287.6"/>
	<path fill="none" stroke="#FFFFFF" stroke-miterlimit="10" d="M290.6,295.9c0,0,26-2.1,31.8-0.6"/>
	<path fill="none" stroke="#FFFFFF" stroke-miterlimit="10" d="M348.7,296.4c0,0,28.6-0.6,35.5,0"/>
	<path fill="none" stroke="#FFFFFF" stroke-miterlimit="10" d="M406.7,281.4c0,0,46.2-4.9,48.8-5.1"/>
	<line fill="none" stroke="#FFFFFF" stroke-miterlimit="10" x1="406.7" y1="293.9" x2="462" y2="293.8"/>
	<path fill="none" stroke="#FFFFFF" stroke-miterlimit="10" d="M117.1,284.9c0,0-30.9,0.1-40.1,3.4c-9.2,3.2-27.5,10.4-27.5,10.4"/>
	<path fill="none" stroke="#FFFFFF" stroke-miterlimit="10" d="M115.8,299.7c0,0-58.2,3.8-61.7,7.6"/>
	<path fill="none" stroke="#FFFFFF" stroke-miterlimit="10" d="M203.3,322.4c-3.3,16-1.8,31.8-1.8,31.8
		c1.4-3.1,48.1-116.6,48.1-116.6s54.7,91.7,57.4,107.1c0,0,5.7-31.7,10.5-44c0,0-0.8,15.1,0,30.1"/>
	<path fill="none" stroke="#FFFFFF" stroke-miterlimit="10" d="M310,310.9c0,0,0.2,11.6-2.1,19.6"/>
	<path fill="none" stroke="#FFFFFF" stroke-miterlimit="10" d="M320.7,317.2c0,0,1.8,147.9,0.1,166.8"/>
	<path fill="none" stroke="#FFFFFF" stroke-miterlimit="10" d="M328.9,357.5c0,0-14.4,1.2-19.9,4.5"/>
	<path fill="none" stroke="#FFFFFF" stroke-miterlimit="10" d="M326,361.1c0,0-14.7,1.6-17,4.6"/>
	<path fill="none" stroke="#FFFFFF" stroke-miterlimit="10" d="M309,353.8c0,0,1.7,108.7-3.7,129"/>
	<path fill="#FFFFFF" stroke="#FFFFFF" stroke-miterlimit="10" d="M247.6,288.2c11.2-8.3,11.8,8.3,10.6,12.3
		c-1.2,4.1-9.1,14-14,10.3S235.7,297,247.6,288.2z"/>
	<path fill="none" stroke="#FFFFFF" stroke-miterlimit="10" d="M198.6,339.9c0,0-2.3-22.7-6.6-26.7c0,0-5.6,26.5-3.7,41.5
		c1.9,15,9.5,115.9,9.2,130.6"/>
	<path fill="none" stroke="#FFFFFF" stroke-miterlimit="10" d="M202.8,358.9c0,0,11.7,112.2,9.2,131.3"/>
	<path fill="none" stroke="#FFFFFF" stroke-miterlimit="10" d="M203.2,368.2c0,0-14.5,4-17.2,0"/>
	<path fill="none" stroke="#FFFFFF" stroke-miterlimit="10" d="M204.4,372.2"/>
	<path fill="none" stroke="#FFFFFF" stroke-miterlimit="10" d="M204.4,372.2c0,0-16.5,0.5-17.7,1"/>
	<path fill="none" stroke="#FFFFFF" stroke-miterlimit="10" d="M216.3,368.8c0,0,11.1-32.1,23.3-42.3s9.4-6.2,9.4-6.2
		s19.5,9.2,25.4,20.7c5.9,11.5,8.5,17.6,8.1,23.8c-0.4,6.2,0,0.7,0,0.7v1.3c0,0-16.1-5-31.3-3.9S216.3,368.8,216.3,368.8"/>
	<path fill="none" stroke="#FFFFFF" stroke-miterlimit="10" d="M222.5,362.6c0,0,9-26,18.9-34.2c9.8-8.3,7.6-5.1,7.6-5.1
		s15.8,7.5,20.6,16.8c4.8,9.3,6.9,14.2,6.5,19.2c-0.4,5,0,0.6,0,0.6v1c0,0-13-4-25.4-3.2S222.5,362.6,222.5,362.6"/>
	<path fill="none" stroke="#FFFFFF" stroke-miterlimit="10" d="M325.3,160.5c0,0,4.9,110-1.2,149.5"/>
	<path fill="none" stroke="#FFFFFF" stroke-miterlimit="10" d="M348,165.2c0,0-3.7,272.8-9.9,303.8"/>
	<path fill="none" stroke="#FFFFFF" stroke-miterlimit="10" d="M174,155.9c0,0,4,183,8.3,200.2"/>
	<path fill="none" stroke="#FFFFFF" stroke-miterlimit="10" d="M198.6,160.5c0,0-2.9,137.2,0,150.3"/>
	<path fill="none" stroke="#FFFFFF" stroke-miterlimit="10" d="M142.7,257.3c0,0,22.1-3.8,33.2-3.3"/>
	<path fill="none" stroke="#FFFFFF" stroke-miterlimit="10" d="M197.9,251.7"/>
	<path fill="none" stroke="#FFFFFF" stroke-miterlimit="10" d="M324.1,248.7c-10.7-5.6-60.6,3-60.6,3"/>
	<path fill="none" stroke="#FFFFFF" stroke-miterlimit="10" d="M349.1,248.9c0,0,23.2-3.6,36.5,0"/>
	<path fill="none" stroke="#FFFFFF" stroke-miterlimit="10" d="M139.3,199.7c0,0,23.5-3.5,36.6-3.6"/>
	<path fill="none" stroke="#FFFFFF" stroke-miterlimit="10" d="M346.7,196.1c0,0,30.1-5.1,44.5-4.4"/>
	<path fill="none" stroke="#FFFFFF" stroke-miterlimit="10" d="M156.7,151.6c0,0,7.3,122.6,3.9,132.3"/>
	<path fill="none" stroke="#FFFFFF" stroke-miterlimit="10" d="M373.3,159"/>
	<path fill="none" stroke="#FFFFFF" stroke-miterlimit="10" d="M373.3,159c0,0-1,98.5-4.4,119.2"/>
	<line fill="none" stroke="#FFFFFF" stroke-miterlimit="10" x1="143.5" y1="287.6" x2="175.9" y2="284.8"/>
	<path fill="none" stroke="#FFFFFF" stroke-miterlimit="10" d="M146.1,292.5"/>
	<path fill="none" stroke="#FFFFFF" stroke-miterlimit="10" d="M146.1,301c0,0,21.5-3.1,28-2.3"/>
	<path fill="none" stroke="#FFFFFF" stroke-miterlimit="10" d="M198.6,286.7c0,0,27.2-1.2,33.6-1.8"/>
	<path fill="none" stroke="#FFFFFF" stroke-miterlimit="10" d="M198.6,298.7"/>
	<path fill="none" stroke="#FFFFFF" stroke-miterlimit="10" d="M198.6,297.3c0,0,18.1-2.6,23.7-0.8"/>
	<path fill="none" stroke="#FFFFFF" stroke-miterlimit="10" d="M282.3,292.5c0,0,33.2-1.9,40.7-0.3"/>
	<path fill="none" stroke="#FFFFFF" stroke-miterlimit="10" d="M349.2,293.4c0,0,28.6-0.6,35.5,0"/>
	<line fill="none" stroke="#FFFFFF" stroke-miterlimit="10" x1="407.2" y1="291" x2="462.6" y2="290.8"/>
	<path fill="none" stroke="#FFFFFF" stroke-miterlimit="10" d="M116.3,296.7c0,0-58.2,3.8-61.7,7.6"/>
	<path fill="none" stroke="#FFFFFF" stroke-miterlimit="10" d="M146.6,298c0,0,21.5-3.1,28-2.3"/>
	<path fill="none" stroke="#FFFFFF" stroke-miterlimit="10" d="M199.1,294.2c0,0,19.4-2.5,25.2-0.8"/>
	<path fill="none" stroke="#FFFFFF" stroke-miterlimit="10" d="M215.4,251.7c0,0,3.6,23.8,1.9,31.2"/>
	<path fill="none" stroke="#FFFFFF" stroke-miterlimit="10" d="M231.4,249.6c0,0,0.1,12.3-1,27"/>
	<path fill="none" stroke="#FFFFFF" stroke-miterlimit="10" d="M277.8,246.7c0,0-4.7,25.2-2.8,29.9"/>
	<path fill="none" stroke="#FFFFFF" stroke-miterlimit="10" d="M297,248.7c0,0-2.1,27.2-2,33.2"/>
	<path fill="none" stroke="#FFFFFF" stroke-miterlimit="10" d="M315.3,249.6c0,0-3.5,29-2.1,32.6"/>
	<path fill="none" stroke="#FFFFFF" stroke-miterlimit="10" d="M150,399.3c0,0,22.1,1.7,39.3,0"/>
	<path fill="none" stroke="#FFFFFF" stroke-miterlimit="10" d="M148,408c0,0,24.7-3.7,41.4-3.4"/>
	<path fill="none" stroke="#FFFFFF" stroke-miterlimit="10" d="M149.4,410.3c0,0,23.8-2.7,40-3.8"/>
	<path fill="none" stroke="#FFFFFF" stroke-miterlimit="10" d="M342.9,392.7c0,0,9.3-5.4,30.5-3.3"/>
	<path fill="none" stroke="#FFFFFF" stroke-miterlimit="10" d="M332.2,402.6"/>
	<path fill="none" stroke="#FFFFFF" stroke-miterlimit="10" d="M332.2,400c0,0,33.5-7.4,41.1-5.7"/>
	<path fill="none" stroke="#FFFFFF" stroke-miterlimit="10" d="M338.1,405.6c0,0,18.7-5.9,30.8-8"/>
	<path fill="#FDFDFD" stroke="#FFFFFF" stroke-miterlimit="10" d="M241.9,483.4c0,0-0.6-42.9,4.3-53.5c4.9-10.7,19.2-20.6,22.6-10.4
		s7,43.8,5.7,65.4"/>
	<path fill="none" stroke="#FFFFFF" stroke-miterlimit="10" d="M207.6,408.7c0,0,15.8,6.5,24.6,6.7"/>
	<path fill="none" stroke="#FFFFFF" stroke-miterlimit="10" d="M211.2,415.3c0,0,9.6,4.7,18.6,2.9"/>
	<path fill="none" stroke="#FFFFFF" stroke-miterlimit="10" d="M185.3,381.1c0,0,25.5-5.3,42.4-5.7s51-3.5,64.6-2.2s24.3-0.5,30-1.9
		"/>
	<path fill="none" stroke="#FFFFFF" stroke-miterlimit="10" d="M276,411.6c0,0,8.8,3.8,21-0.9c12.2-4.7,12.2-4.7,12.2-4.7"/>
	<path fill="none" stroke="#FFFFFF" stroke-miterlimit="10" d="M274,417c0,0,25,1.9,33.3-3.5"/>
	<path fill="none" stroke="#FFFFFF" stroke-miterlimit="10" d="M279.4,422.5"/>
	<path fill="none" stroke="#FFFFFF" stroke-miterlimit="10" d="M276,422.5c0,0,22,2.3,31.3-3.9"/>
	<path fill="none" stroke="#FFFFFF" stroke-miterlimit="10" d="M289,376.3c0,0,4.8,76.8,2.6,104.4"/>
	<path fill="none" stroke="#FFFFFF" stroke-miterlimit="10" d="M219.9,376.3c0,0-1.4,85.7-2.1,105.7"/>
	<path fill="none" stroke="#FFFFFF" stroke-miterlimit="10" d="M340,334c0,0,29.5,0,37.3,3.5"/>
	<path fill="none" stroke="#FFFFFF" stroke-miterlimit="10" d="M367,299c0,0-9.3,67.7-10.3,82.1"/>
	<path fill="none" stroke="#FFFFFF" stroke-miterlimit="10" d="M356.7,410.6c0,0-6.9,42.4-7.5,62.9"/>
	<path fill="none" stroke="#FFFFFF" stroke-miterlimit="10" d="M340.8,438.9c0,0,13-6,24.6-2"/>
	<path fill="none" stroke="#FFFFFF" stroke-miterlimit="10" d="M160.6,301.2c0,0,13.6,79.7,11.8,95.8"/>
	<path fill="none" stroke="#FFFFFF" stroke-miterlimit="10" d="M173.2,413.4c9.3,21.6,10,58.1,9.2,70.6"/>
	<path fill="none" stroke="#FFFFFF" stroke-miterlimit="10" d="M151.3,448.7c0,0,26.7-11.1,40.7-6.7"/>
	<path fill="none" stroke="#FFFFFF" stroke-miterlimit="10" d="M146.1,342.6"/>
	<path fill="none" stroke="#FFFFFF" stroke-miterlimit="10" d="M146.1,342.6c0,0,26.7-9.1,34.3-4.6"/>
	<path fill="none" stroke="#FFFFFF" stroke-miterlimit="10" d="M56.7,338c0,0,39-6.8,54.4-4.2"/>
	<path fill="none" stroke="#FFFFFF" stroke-miterlimit="10" d="M94.3,307c0,0,8.2,36.4,9.7,47.7"/>
	<path fill="none" stroke="#FFFFFF" stroke-miterlimit="10" d="M74,313.2"/>
	<path fill="none" stroke="#FFFFFF" stroke-miterlimit="10" d="M71.5,313.4c0,0,4.3,28.1,0.1,38.6"/>
	<path fill="none" stroke="#FFFFFF" stroke-miterlimit="10" d="M59.3,313.4c0,0,0.8,39,0,50.1"/>
	<path fill="none" stroke="#FFFFFF" stroke-miterlimit="10" d="M49.6,476.1c0,0,2.5-114.1,32.2-132.3c0,0,25.5,9.4,27,42.3
		c1.4,33,1.3,95.7-0.7,101.8"/>
	<path fill="none" stroke="#FFFFFF" stroke-miterlimit="10" d="M68.3,392.3c0,0,7-16.1,16.1-13.2s20.6,22.2,21.1,51.6"/>
	<path fill="#FCFCFC" stroke="#FFFFFF" stroke-miterlimit="10" d="M65.5,479.9c0,0,0.5-52.5,15.6-55.7c0,0,10.4-1.4,12.5,20.7
		c2.1,22.1,2.1,39.1,2.1,39.1"/>
	<path fill="none" stroke="#FFFFFF" stroke-miterlimit="10" d="M35.9,242.7c0,0,16,83.6,13.7,131.7S38,465.9,39,476"/>
	<path fill="none" stroke="#FFFFFF" stroke-miterlimit="10" d="M49.6,255.6c0,0,4.5,10.4,4.5,24.9s-1.1,1.9-1.1,1.9
		s13.5-40.2,25.5-43.8s34.6,36,36.5,37.4"/>
	<path fill="none" stroke="#FFFFFF" stroke-miterlimit="10" d="M62.2,273c0,0,8.9-10.5,27.4-7.2"/>
	<path fill="none" stroke="#FFFFFF" stroke-miterlimit="10" d="M77,254c0,0-0.7,19.5,1.5,26.4"/>
	<path fill="none" stroke="#FFFFFF" stroke-miterlimit="10" d="M414.7,256c0,0,15.9-47.9,33.3-52c0,0,17.1,36.3,19.3,58.9"/>
	<path fill="none" stroke="#FFFFFF" stroke-miterlimit="10" d="M428,243.4c0,0,22.4-4.3,27.5,0.6"/>
	<path fill="none" stroke="#FFFFFF" stroke-miterlimit="10" d="M443.2,225.3c0,0-6.6,35.3-5.4,42"/>
	<path fill="none" stroke="#FFFFFF" stroke-miterlimit="10" d="M472.7,216.1c0,0,6.2,27.4,0,69.4c-6.2,42-4.5,131.8-5.4,159.4
		c-0.9,27.6,0,45.3,0,45.3"/>
	<path fill="none" stroke="#FFFFFF" stroke-miterlimit="10" d="M407.8,332.7c0,0,38.4-7.2,52.1-6.7"/>
	<path fill="none" stroke="#FFFFFF" stroke-miterlimit="10" d="M419.3,300c0,0,3.9,39.3,2.3,52.3"/>
	<path fill="none" stroke="#FFFFFF" stroke-miterlimit="10" d="M433.4,297.5c0,0,4.8,36.1,2.5,47.8"/>
	<path fill="none" stroke="#FFFFFF" stroke-miterlimit="10" d="M447,300c0,0-1,50,0,57.5"/>
	<path fill="none" stroke="#FFFFFF" stroke-miterlimit="10" d="M403.5,454.3c0,0,2.5-90.6,27.2-98.2s11.7,121.3,12.5,126.6"/>
	<path fill="none" stroke="#FFFFFF" stroke-miterlimit="10" d="M413.5,415.3c0,0-2.9-15,14-24.5c0,0,14,4.9,13,38.3"/>
	<path fill="#FFFFFF" stroke="#FFFFFF" stroke-miterlimit="10" d="M412.9,487.3c0,0-2.3-46.7,9.2-49.9c11.5-3.2,14.6,39.3,11.3,48.6
		"/>
	<path fill="#FFFFFF" stroke="#FFFFFF" stroke-miterlimit="10" d="M431.1,383.7c12-2.5,8.2-9.6,3.9-9.4c-4.3,0.3-9.9-2.4-11.2,4.4
		C422.5,385.5,427.6,384.5,431.1,383.7z"/>
	<path fill="#FFFFFF" stroke="#FFFFFF" stroke-miterlimit="10" d="M83,361.3c9.5,0.2,6.7,1.3,6.3,5c-0.4,3.8-0.4,4.8-5.4,5.1
		c-7.2,0.3-9.9-1.7-5.7-7.2C81.9,359.3,83,361.3,83,361.3z"/>
	<path fill="none" stroke="#FFFFFF" stroke-miterlimit="10" d="M233.2,357.4c0,0,6-18.5,12.7-24.3c6.6-5.9,5.1-3.6,5.1-3.6
		s10.6,5.3,13.8,11.9c3.2,6.6,4.6,10.1,4.4,13.7s0,0.4,0,0.4v0.7c0,0-8.7-2.9-17-2.3C243.9,354.5,233.2,357.4,233.2,357.4"/>
	<path fill="none" stroke="#FFFFFF" stroke-miterlimit="10" d="M261,165.2c32.8,1.2,47.8,21.2,41.4,48.7
		c-5.1,22.2-36.5,22.7-48.6,19.6c-12.1-3.1-29-6.2-31.8-33.8C220.1,180.7,247.4,164.7,261,165.2z"/>
	<path fill="none" stroke="#FFFFFF" stroke-miterlimit="10" d="M262.1,158.4c36,1.3,52.4,23.2,45.5,53.4
		c-5.6,24.4-40.1,24.9-53.4,21.5c-13.3-3.4-31.9-6.8-34.9-37C217.2,175.5,247.1,157.9,262.1,158.4z"/>
	<path fill="none" stroke="#FFFFFF" stroke-miterlimit="10" d="M261.3,170.3c28,1,40.7,18,35.3,41.5c-4.4,18.9-31.1,19.4-41.5,16.7
		c-10.3-2.7-24.7-5.3-27.1-28.8C226.5,183.6,249.7,169.9,261.3,170.3z"/>
	<path fill="none" stroke="#FFFFFF" stroke-miterlimit="10" d="M261.3,154.9c41,1.5,59.6,26.4,51.7,60.7
		c-6.4,27.7-45.5,28.3-60.7,24.4c-15.1-3.9-36.2-7.8-39.6-42.1C210.3,174.3,244.4,154.3,261.3,154.9z"/>
	<path fill="none" stroke="#FFFFFF" stroke-miterlimit="10" d="M237.7,354.3c0,0,4.5-13.8,9.5-18.2c4.9-4.4,3.8-2.7,3.8-2.7
		s7.9,4,10.3,8.9s3.4,7.6,3.3,10.2c-0.2,2.7,0,0.3,0,0.3v0.5c0,0-6.5-2.1-12.7-1.7C245.7,352.2,237.7,354.3,237.7,354.3"/>
	<path fill="none" stroke="#FFFFFF" stroke-miterlimit="10" d="M195.5,251.7c0,0,36.1-2.7,44-2.8"/>
	<ellipse fill="#FFFFFF" stroke="#FFFFFF" stroke-miterlimit="10" cx="130.4" cy="203.5" rx="3.6" ry="3.8"/>
	<ellipse fill="#FFFFFF" stroke="#FFFFFF" stroke-miterlimit="10" cx="131" cy="257.8" rx="3" ry="3.8"/>
	<ellipse fill="#FFFFFF" stroke="#FFFFFF" stroke-miterlimit="10" cx="132.2" cy="343.6" rx="1.8" ry="5.6"/>
	<ellipse fill="#FFFFFF" stroke="#FFFFFF" stroke-miterlimit="10" cx="134.9" cy="409.3" rx="2.7" ry="3.7"/>
	<ellipse fill="#FFFFFF" stroke="#FFFFFF" stroke-miterlimit="10" cx="132.2" cy="295.8" rx="1.8" ry="4.2"/>
	<ellipse fill="#FFFFFF" stroke="#FFFFFF" stroke-miterlimit="10" cx="135.2" cy="453.4" rx="4.2" ry="4.6"/>
	<ellipse fill="#FFFFFF" stroke="#FFFFFF" stroke-miterlimit="10" cx="187.3" cy="198.7" rx="2" ry="4.8"/>
	<ellipse fill="#FFFFFF" stroke="#FFFFFF" stroke-miterlimit="10" cx="184.3" cy="256.7" rx="1.7" ry="5"/>
	<ellipse fill="#FFFFFF" stroke="#FFFFFF" stroke-miterlimit="10" cx="189.4" cy="296.5" rx="2.7" ry="3.2"/>
	<ellipse fill="#FFFFFF" stroke="#FFFFFF" stroke-miterlimit="10" cx="339.5" cy="195.9" rx="1.3" ry="4.2"/>
	<ellipse fill="#FFFFFF" stroke="#FFFFFF" stroke-miterlimit="10" cx="335.2" cy="249" rx="3" ry="2.7"/>
	<ellipse fill="#FFFFFF" stroke="#FFFFFF" stroke-miterlimit="10" cx="335.2" cy="292.1" rx="3" ry="3.8"/>
	<ellipse fill="#FFFFFF" stroke="#FFFFFF" stroke-miterlimit="10" cx="333.7" cy="337" rx="1.5" ry="3"/>
	<ellipse fill="#FFFFFF" stroke="#FFFFFF" stroke-miterlimit="10" cx="400.2" cy="195.2" rx="1.6" ry="3.6"/>
	<ellipse fill="#FFFFFF" stroke="#FFFFFF" stroke-miterlimit="10" cx="398.4" cy="251.5" rx="1.1" ry="4.2"/>
	<ellipse fill="#FFFFFF" stroke="#FFFFFF" stroke-miterlimit="10" cx="394.4" cy="296.4" rx="3.2" ry="4.8"/>
	<ellipse fill="#FFFFFF" stroke="#FFFFFF" stroke-miterlimit="10" cx="389" cy="335.5" rx="3.3" ry="4.6"/>
	<ellipse fill="#FFFFFF" stroke="#FFFFFF" stroke-miterlimit="10" cx="386.6" cy="394.5" rx="2.4" ry="5.6"/>
	<ellipse fill="#FFFFFF" stroke="#FFFFFF" stroke-miterlimit="10" cx="382.9" cy="447.5" rx="1.3" ry="2.6"/>
</g>
</svg>
