<?xml version="1.0" encoding="utf-8"?>
<!-- Generator: Adobe Illustrator 17.1.0, SVG Export Plug-In . SVG Version: 6.00 Build 0)  -->
<!DOCTYPE svg PUBLIC "-//W3C//DTD SVG 1.1//EN" "http://www.w3.org/Graphics/SVG/1.1/DTD/svg11.dtd">
<svg version="1.1" id="图层_1" xmlns="http://www.w3.org/2000/svg" xmlns:xlink="http://www.w3.org/1999/xlink" x="0px" y="0px"
	 viewBox="0 0 266.3 321.6" enable-background="new 0 0 266.3 321.6" xml:space="preserve">
<g>
	
		<rect x="234.8" y="186.7" transform="matrix(0.9974 7.199605e-002 -7.199605e-002 0.9974 18.9127 -17.2061)" fill="#FFFFFF" width="26.7" height="134.1"/>
</g>
<g>
	<polygon fill="#FFFFFF" points="145.1,0 48.4,53.5 236.5,62.1 	"/>
</g>
<g>
	<path fill="#FFFFFF" d="M90.7,64.5l3.3,88.3l88.3-3.3L179,61.3L90.7,64.5z M137.5,134.9c-15.4,0.6-28.3-11.4-28.9-26.8
		c-0.6-15.4,11.4-28.3,26.8-28.9c15.4-0.6,28.3,11.4,28.9,26.8S152.9,134.3,137.5,134.9z"/>
</g>
<g>
	<path fill="#FFFFFF" d="M52.6,180.2v128.5h52V233h0c0.2-14,15.5-25.3,34.3-25.3c18.8,0,34.1,11.3,34.3,25.3h0v75.6h52V180.2H52.6z"
		/>
</g>
<g>
	
		<rect x="13.6" y="178.7" transform="matrix(0.9776 -0.2106 0.2106 0.9776 -50.9706 11.1749)" fill="#FFFFFF" width="26.7" height="132.4"/>
</g>
<g>
	
		<rect x="125.6" y="35.4" transform="matrix(-4.726334e-002 -0.9989 0.9989 -4.726334e-002 -21.135 308.0341)" fill="#FFFFFF" width="21.4" height="257.4"/>
</g>
<g>
	
		<rect x="186.1" y="65.1" transform="matrix(0.9975 -7.039496e-002 7.039496e-002 0.9975 -7.014 14.3057)" fill="#FFFFFF" width="26.7" height="83.2"/>
</g>
<g>
	
		<rect x="60.3" y="66.4" transform="matrix(0.9993 -3.773217e-002 3.773217e-002 0.9993 -4.0107 2.8563)" fill="#FFFFFF" width="26.7" height="82.5"/>
</g>
<g>
	<polygon fill="#FFFFFF" points="38,96.6 27.9,114.8 48.5,114.5 	"/>
</g>
<g>
	<polygon fill="#FFFFFF" points="235.8,87.2 224.6,107.5 247.5,107.2 	"/>
</g>
<g>
	
		<rect x="25.6" y="116.3" transform="matrix(0.9975 -7.039490e-002 7.039490e-002 0.9975 -9.3974 3.0765)" fill="#FFFFFF" width="26.7" height="37.1"/>
</g>
<g>
	
		<rect x="225.3" y="108.9" transform="matrix(0.9975 -7.039490e-002 7.039490e-002 0.9975 -8.3794 17.1128)" fill="#FFFFFF" width="26.7" height="37.1"/>
</g>
</svg>
